 <svg width="22px" height="22px" viewBox="0 0 18 18" fill="none">
      <path
        fill-rule="evenodd"
        clip-rule="evenodd"
        d="M9 1.6875C4.96125 1.6875 1.6875 4.96125 1.6875 9C1.6875 13.0387 4.96125 16.3125 9 16.3125C13.0387 16.3125 16.3125 13.0387 16.3125 9C16.3125 4.96125 13.0387 1.6875 9 1.6875ZM7.03125 6.1875C6.62625 6.1875 6.41025 6.50175 6.32925 6.663C6.23302 6.86584 6.18453 7.08802 6.1875 7.3125C6.1875 7.536 6.23175 7.76625 6.32925 7.962C6.41025 8.12325 6.6255 8.4375 7.03125 8.4375C7.43625 8.4375 7.65225 8.12325 7.73325 7.962C7.83075 7.767 7.875 7.536 7.875 7.3125C7.875 7.089 7.83075 6.85875 7.73325 6.663C7.65225 6.50175 7.437 6.1875 7.03125 6.1875ZM10.2668 6.663C10.3477 6.50175 10.563 6.1875 10.9688 6.1875C11.3737 6.1875 11.5898 6.50175 11.6707 6.663C11.7682 6.858 11.8125 7.089 11.8125 7.3125C11.8125 7.536 11.7682 7.76625 11.6707 7.962C11.5898 8.12325 11.3745 8.4375 10.9688 8.4375C10.5638 8.4375 10.3477 8.12325 10.2668 7.962C10.1705 7.75916 10.122 7.53698 10.125 7.3125C10.125 7.089 10.1693 6.85875 10.2668 6.663ZM11.784 11.784C11.8393 11.7325 11.8836 11.6704 11.9143 11.6014C11.9451 11.5324 11.9616 11.4579 11.9629 11.3824C11.9643 11.3069 11.9504 11.2318 11.9221 11.1618C11.8938 11.0918 11.8517 11.0281 11.7983 10.9747C11.7449 10.9213 11.6812 10.8792 11.6112 10.8509C11.5412 10.8226 11.4661 10.8087 11.3906 10.8101C11.3151 10.8114 11.2406 10.8279 11.1716 10.8587C11.1026 10.8894 11.0405 10.9337 10.989 10.989C10.7278 11.2502 10.4177 11.4575 10.0765 11.5989C9.73519 11.7403 9.36941 11.813 9 11.813C8.63059 11.813 8.26481 11.7403 7.92353 11.5989C7.58225 11.4575 7.27217 11.2502 7.011 10.989C6.90437 10.8896 6.76333 10.8355 6.61761 10.8381C6.47188 10.8407 6.33284 10.8997 6.22978 11.0028C6.12672 11.1058 6.06769 11.2449 6.06512 11.3906C6.06255 11.5363 6.11664 11.6774 6.216 11.784C6.95441 12.5223 7.95582 12.937 9 12.937C10.0442 12.937 11.0456 12.5223 11.784 11.784Z"
        fill="#6814BB"
      ></path>
    </svg>
