<svg width="22px" height="22px" viewBox="0 0 18 18" fill="none">
      <path
        d="M8.74101 15.5H6.25899C3.56115 15.5 1.29496 13.625 0.86331 11.125L0 6.54167C0 6.22917 -2.09045e-07 6.02083 0.215827 5.8125C0.431654 5.60417 0.647482 5.5 0.971223 5.5H14.0288C14.3525 5.5 14.5683 5.60417 14.7842 5.8125C15 6.02083 15 6.33333 15 6.54167L14.1367 11.125C13.705 13.7292 11.4388 15.5 8.74101 15.5ZM1.18705 6.64583L1.94245 11.0208C2.26619 13.1042 4.10072 14.5625 6.25899 14.5625H8.74101C10.8993 14.5625 12.7338 13.1042 13.0576 11.0208L13.8129 6.64583H1.18705Z"
        fill="#6814BB"
      ></path>
      <path
        d="M14.1213 7.22406C14.7671 6.58151 16.1878 6.06748 17.3501 7.22406C18.125 7.99511 18.2542 9.53722 17.4793 10.6938C16.9627 11.5934 16.0586 12.1074 15.0254 12.1074C14.6379 12.1074 14.2505 11.9789 13.7339 11.8504L14.1213 10.5653C15.4128 10.9508 16.0586 10.4368 16.3169 9.92274C16.7044 9.2802 16.7044 8.38064 16.3169 7.99511C15.6712 7.35257 15.1545 7.8666 14.8962 7.99511L14.1213 7.22406Z"
        fill="#6814BB"
      ></path>
      <path
        d="M5.01676 4.93395C4.77676 4.93395 4.65676 4.82185 4.53676 4.70976C4.53676 4.59766 4.17676 4.14929 4.17676 3.47673C4.17676 2.80416 4.53676 2.2437 4.53676 2.2437C4.53676 2.2437 4.77676 1.90742 4.77676 1.57113C4.77676 1.23485 4.53676 0.898571 4.53676 0.898571C4.41676 0.674384 4.41676 0.338103 4.77676 0.113916C5.01676 0.00182194 5.37676 0.00182172 5.61676 0.338103C5.61676 0.450197 5.97676 0.898572 5.97676 1.57113C5.97676 2.2437 5.61676 2.80416 5.61676 2.80416C5.61676 2.80416 5.37676 3.14045 5.37676 3.47673C5.37676 3.81301 5.61676 4.14929 5.61676 4.14929C5.73676 4.37348 5.73676 4.70976 5.37676 4.93395C5.13676 4.93395 5.13676 4.93395 5.01676 4.93395Z"
        fill="#6814BB"
      ></path>
      <path
        d="M7.25797 4.93395C7.01797 4.93395 6.89797 4.82185 6.77797 4.70976C6.77797 4.70976 6.41797 4.14929 6.41797 3.47673C6.41797 2.80416 6.77797 2.2437 6.77797 2.2437C6.77797 2.2437 7.01797 1.90742 7.01797 1.57113C7.01797 1.23485 6.77797 0.898571 6.77797 0.898571C6.65797 0.674384 6.65797 0.338103 7.01797 0.113916C7.25797 0.00182194 7.61797 0.00182172 7.85797 0.338103C7.85797 0.450197 8.21797 0.898572 8.21797 1.57113C8.21797 2.2437 7.85797 2.80416 7.85797 2.80416C7.85797 2.80416 7.61797 3.14045 7.61797 3.47673C7.61797 3.81301 7.85797 4.14929 7.85797 4.14929C7.97797 4.37348 7.97797 4.70976 7.61797 4.93395C7.49797 4.93395 7.37797 4.93395 7.25797 4.93395Z"
        fill="#6814BB"
      ></path>
      <path
        d="M9.49869 4.89C9.25869 4.89 9.13869 4.77896 9.01869 4.66793C9.01869 4.66793 8.65869 4.11276 8.65869 3.44656C8.65869 2.78035 9.01869 2.22518 9.01869 2.22518C9.01869 2.22518 9.25869 1.89208 9.25869 1.55898C9.25869 1.22587 9.01869 0.892772 9.01869 0.892772C8.89869 0.670703 8.89869 0.337601 9.25869 0.115533C9.61869 -0.106535 9.85869 0.00449875 10.0987 0.337601C10.0987 0.448635 10.4587 0.892772 10.4587 1.55898C10.4587 2.22518 10.0987 2.78035 10.0987 2.78035C10.0987 2.78035 9.85869 3.11345 9.85869 3.44656C9.85869 3.77966 10.0987 4.11276 10.0987 4.11276C10.2187 4.33483 10.2187 4.66793 9.85869 4.89C9.73869 4.89 9.61869 4.89 9.49869 4.89Z"
        fill="#6814BB"
      ></path>
      <path
        d="M14.0179 17.2671H1.48214C1.19286 17.2671 1 17.0671 1 16.7671C1 16.4671 1.19286 16.2671 1.48214 16.2671H14.0179C14.3071 16.2671 14.5 16.4671 14.5 16.7671C14.5 17.0671 14.3071 17.2671 14.0179 17.2671Z"
        fill="#6814BB"
      ></path>
    </svg>
