<svg width="22px" height="22px" viewBox="0 0 18 18" fill="none">
      <path
        d="M8.77495 2.10385C8.84592 2.07287 8.92252 2.05688 8.99995 2.05688C9.07739 2.05688 9.15399 2.07287 9.22495 2.10385C11.9985 3.31615 14.6441 4.80226 17.1225 6.5401C17.2098 6.60135 17.2779 6.68617 17.3189 6.78467C17.3598 6.88317 17.3719 6.99128 17.3538 7.0964C17.3356 7.20152 17.2879 7.29931 17.2163 7.37836C17.1447 7.4574 17.052 7.51445 16.9492 7.54285C14.3762 8.25346 11.8866 9.23705 9.5227 10.4768L9.52045 10.4783C9.43495 10.5233 9.3502 10.5676 9.26545 10.6133C9.18388 10.6569 9.09282 10.6797 9.00033 10.6797C8.90784 10.6797 8.81678 10.6569 8.7352 10.6133C7.72132 10.0723 6.68351 9.57726 5.62495 9.12985V8.96184C5.62495 8.8636 5.6752 8.77584 5.75395 8.72859C6.88598 8.04258 8.0506 7.41184 9.2437 6.83859C9.37817 6.77395 9.48145 6.65853 9.53081 6.51774C9.58018 6.37695 9.5716 6.22231 9.50695 6.08784C9.44231 5.95338 9.32689 5.8501 9.1861 5.80073C9.04531 5.75137 8.89067 5.75995 8.7562 5.82459C7.53054 6.41356 6.33414 7.06157 5.1712 7.76634C5.00575 7.86671 4.86302 8.00044 4.7521 8.15901C4.64118 8.31758 4.56451 8.49751 4.52695 8.68735C3.38786 8.24904 2.22797 7.86683 1.05145 7.54209C0.948626 7.5137 0.855992 7.45665 0.784358 7.37761C0.712725 7.29856 0.665046 7.20077 0.646884 7.09565C0.628722 6.99053 0.640826 6.88242 0.681784 6.78392C0.722742 6.68542 0.790864 6.60059 0.878204 6.53934C3.35635 4.80183 6.0017 3.31597 8.77495 2.10385Z"
        fill="#6814BB"
      ></path>
      <path
        d="M9.79507 11.6048C11.6373 10.6206 13.5609 9.79707 15.5446 9.14333C15.6451 10.2038 15.7096 11.2756 15.7358 12.3563C15.7387 12.4696 15.7073 12.5812 15.6458 12.6763C15.5842 12.7715 15.4953 12.8458 15.3908 12.8896C13.2648 13.7775 11.2291 14.868 9.31207 16.1461C9.21967 16.2077 9.11111 16.2405 9.00007 16.2405C8.88902 16.2405 8.78046 16.2077 8.68807 16.1461C6.77124 14.8681 4.73586 13.7776 2.61007 12.8896C2.50552 12.846 2.41658 12.7718 2.35488 12.6768C2.29319 12.5818 2.26163 12.4703 2.26432 12.3571C2.29057 11.2756 2.35507 10.2046 2.45557 9.14258C3.14632 9.37058 3.82807 9.61808 4.50007 9.88508V10.8376C4.33802 10.9309 4.2018 11.0632 4.10374 11.2225C4.00568 11.3817 3.94887 11.5629 3.93845 11.7497C3.92802 11.9364 3.96432 12.1228 4.04404 12.292C4.12377 12.4611 4.24442 12.6078 4.39507 12.7186C4.32757 13.0036 4.22857 13.2833 4.09732 13.5511C4.43632 13.7108 4.77307 13.8766 5.10682 14.0461C5.29495 13.6634 5.43381 13.2584 5.52007 12.8408C5.70973 12.7565 5.87237 12.6213 5.98998 12.4503C6.10759 12.2793 6.1756 12.079 6.18646 11.8718C6.19733 11.6645 6.15064 11.4582 6.05156 11.2758C5.95248 11.0935 5.80487 10.942 5.62507 10.8383V10.3546C6.50115 10.7373 7.36182 11.1544 8.20507 11.6048C8.44969 11.7355 8.72274 11.8038 9.00007 11.8038C9.27739 11.8038 9.55045 11.7355 9.79507 11.6048Z"
        fill="#6814BB"
      ></path>
      <path
        d="M3.34651 14.5965C3.66151 14.2823 3.91126 13.929 4.09651 13.5503C4.43626 13.7108 4.77301 13.8765 5.10676 14.0468C4.86136 14.5452 4.53549 14.9998 4.14226 15.3923C4.03563 15.4917 3.89459 15.5457 3.74887 15.5432C3.60314 15.5406 3.4641 15.4816 3.36104 15.3785C3.25798 15.2755 3.19895 15.1364 3.19638 14.9907C3.19381 14.845 3.2479 14.7039 3.34726 14.5973L3.34651 14.5965Z"
        fill="#6814BB"
      ></path>
    </svg>
