<svg width="77" height="86" viewBox="0 0 77 86" fill="none" xmlns="http://www.w3.org/2000/svg">
<g opacity="0.5">
<path fill-rule="evenodd" clip-rule="evenodd" d="M3.39697 57.2044H5.71389V46.953L9.33228 55.8909C9.74213 56.9653 10.3306 57.3637 11.471 57.3637C12.6119 57.3637 13.1644 56.9653 13.5922 55.8909L17.1926 46.953V57.2044H19.5275V46.953C19.5275 45.9581 19.1708 45.4793 18.4222 45.2206C16.6577 44.6236 15.4813 45.1411 14.9468 46.4747L11.4003 55.3136L7.97808 46.4747C7.46117 45.1416 6.26676 44.624 4.48473 45.2206C3.7541 45.4793 3.39737 45.9576 3.39737 46.953V57.2044H3.39697ZM21.4522 48.8639H23.7871V54.4976C23.7695 54.8157 23.8761 55.5326 25.1417 55.5518C25.8012 55.5719 30.1678 55.5518 30.2033 55.5518V48.8237H32.5382V58.0405C32.5382 60.3097 30.0252 60.8072 28.8487 60.8272H21.5053V59.0957H28.8663C30.3635 58.9163 30.1854 58.0807 30.1854 57.8018V57.1245H25.2483C22.949 57.1045 21.4697 55.9699 21.4522 54.676C21.4522 54.5569 21.5053 48.9032 21.4522 48.8639ZM71.5352 42.3343C70.1099 42.2946 69.0041 42.4539 68.0774 42.892C67.8105 43.0121 67.3823 43.0121 67.3471 43.39C67.4897 43.5483 67.5069 43.8076 67.6319 44.0271C67.8457 44.4255 68.2204 44.9622 68.5587 45.2411C68.9334 45.5601 69.3077 45.8782 69.6992 46.157C70.3943 46.6344 71.1784 46.9133 71.8555 47.3911C72.2478 47.67 72.6397 48.0282 73.032 48.3272C73.2277 48.4864 73.3527 48.7457 73.6024 48.8447V48.7845C73.4778 48.606 73.4418 48.3472 73.3176 48.1474C73.139 47.9488 72.9609 47.769 72.7823 47.5705C72.2658 46.7942 71.6238 46.1169 70.9284 45.5601C70.3579 45.1219 69.1104 44.525 68.8787 43.7884L68.8435 43.7482C69.235 43.7081 69.6988 43.5488 70.0731 43.4292C70.6795 43.2508 71.2316 43.29 71.8551 43.1111C72.1408 43.0312 72.4256 42.9317 72.7112 42.8323V42.6533C72.3904 42.2951 72.1587 41.8172 71.8204 41.4791C70.9116 40.6032 69.9129 39.7471 68.8791 39.0305C68.3266 38.6326 67.6136 38.3733 67.026 38.0356C66.8114 37.916 66.4555 37.8562 66.3309 37.6572C66.0093 37.2196 65.8315 36.6422 65.5999 36.1242C65.0833 35.0294 64.584 33.8154 64.1386 32.6607C63.8178 31.8844 63.6213 31.1081 63.2298 30.3915C61.3938 27.0074 59.3973 24.9569 56.3318 22.9465C55.6727 22.5284 54.8885 22.3491 54.0504 22.1304C53.605 22.1104 53.1596 22.0707 52.7138 22.0506C52.4282 21.9114 52.1433 21.533 51.8937 21.3537C50.8778 20.6371 48.2577 19.0845 47.5087 21.1346C47.0274 22.4285 48.2218 23.7023 48.6316 24.3595C48.9352 24.8172 49.3267 25.3348 49.5412 25.8523C49.6654 26.1905 49.701 26.5492 49.826 26.9075C50.1109 27.7833 50.3785 28.7586 50.7528 29.5751C50.9485 29.9931 51.1623 30.4312 51.4119 30.8096C51.5545 31.0286 51.8042 31.1281 51.8573 31.4864C51.6077 31.8848 51.5905 32.4818 51.4479 32.9797C50.8059 35.2292 51.0556 38.016 51.9644 39.6681C52.25 40.1656 52.9271 41.2604 53.8363 40.8424C54.6384 40.4841 54.4599 39.3495 54.6916 38.3541C54.7455 38.1155 54.7095 37.9562 54.8162 37.7969V37.8366C55.0659 38.3939 55.3155 38.9315 55.5472 39.4887C56.0997 40.464 57.0624 41.4795 57.8645 42.1563C58.292 42.5146 58.6307 43.1321 59.1652 43.3507V43.2905H59.1301C59.023 43.112 58.8624 43.0321 58.7198 42.8925C58.399 42.5342 58.0427 42.0961 57.793 41.6981C57.0448 40.5836 56.3857 39.3491 55.7973 38.0753C55.5117 37.4583 55.262 36.7814 55.0311 36.1644C54.9233 35.9253 54.9233 35.567 54.7455 35.4479C54.4778 35.8855 54.0864 36.2643 53.8894 36.8015C53.5507 37.6572 53.5155 38.7124 53.3909 39.8073C53.319 39.8274 53.3549 39.8073 53.319 39.847C52.7493 39.6882 52.5528 39.031 52.3391 38.4737C51.8046 37.0603 51.7151 34.7911 52.1785 33.1586C52.3031 32.7406 52.8384 31.4266 52.6247 31.0286C52.5169 30.6503 52.1613 30.4317 51.9648 30.1328C51.7331 29.7544 51.4842 29.277 51.3236 28.859C50.8962 27.744 50.6825 26.5099 50.2187 25.395C50.0042 24.8774 49.6303 24.3398 49.3271 23.8624C48.9883 23.3248 48.6148 22.9465 48.3472 22.3098C48.2581 22.0907 48.1335 21.7325 48.2761 21.4938C48.3112 21.3345 48.3831 21.2747 48.525 21.235C48.7567 21.0159 49.4166 21.2948 49.6483 21.4139C50.3074 21.7124 50.8599 21.9912 51.4123 22.4088C51.662 22.6078 51.9296 22.9862 52.2504 23.0861H52.6251C53.1956 23.2253 53.8367 23.1258 54.3712 23.3047C55.3159 23.6434 56.1712 24.1408 56.9382 24.6785C59.2727 26.3306 61.1981 28.6796 62.4988 31.4864C62.7125 31.9442 62.8016 32.3622 62.9981 32.8401C63.3728 33.8158 63.8362 34.8107 64.2097 35.7664C64.5844 36.702 64.9407 37.6577 65.4752 38.434C65.7429 38.8521 66.8118 39.0707 67.2932 39.2897C67.6499 39.4687 68.202 39.6284 68.5236 39.847C69.1292 40.2651 69.7352 40.7429 70.3056 41.2007C70.5904 41.4389 71.482 41.9364 71.5352 42.3343Z" fill="#13566F"/>
<path fill-rule="evenodd" clip-rule="evenodd" d="M53.3552 25.0356C53.0524 25.0356 52.8387 25.0754 52.625 25.1351V25.1748H52.6602C52.8028 25.4934 53.0524 25.7125 53.2306 25.9909C53.3732 26.3094 53.4982 26.628 53.6408 26.9465L53.676 26.9068C53.9257 26.7079 54.0507 26.3893 54.0507 25.9115C53.9436 25.7723 53.9261 25.6326 53.837 25.4934C53.7299 25.2944 53.4982 25.1949 53.3552 25.0356Z" fill="#13566F"/>
<path fill-rule="evenodd" clip-rule="evenodd" d="M34.3208 57.2046H41.0223C41.8064 57.2046 42.5554 57.0261 43.161 56.7071C44.1769 56.1896 44.6583 55.4931 44.6583 54.5776V52.6667C44.6583 51.9305 44.1058 51.2332 43.0013 50.7558C42.4308 50.5171 41.7178 50.3775 41.0227 50.3775H38.2068C37.2621 50.3775 36.8167 50.0585 36.6916 49.3624C36.6741 49.283 36.6741 49.2032 36.6741 49.1237V47.949C36.6741 47.8888 36.6741 47.8098 36.6916 47.7304C36.8163 47.1928 37.066 47.0531 37.8861 46.9541H44.7477V45.2216H38.224C37.2793 45.2216 36.7803 45.2819 36.3349 45.4411C34.9623 45.9185 34.3564 46.6752 34.3564 48.0083V49.5222C34.3564 50.696 35.5328 51.6918 37.5289 51.9305C37.7426 51.9506 37.9743 51.9506 38.206 51.9506H40.6124C40.7015 51.9506 40.7902 51.9506 40.8613 51.9707C41.5923 52.0501 41.9131 52.1893 42.1268 52.4873C42.2694 52.6466 42.3054 52.7863 42.3054 52.9656V54.4786C42.3054 54.657 42.1983 54.8971 41.9846 55.0956C41.7701 55.2941 41.4313 55.4338 40.9859 55.4539C40.8969 55.4539 40.8441 55.4739 40.7542 55.4739H34.3208V57.2046ZM59.1658 54.1993C59.1658 55.971 60.3602 56.9659 62.7486 57.1653C62.9803 57.1854 63.194 57.2046 63.4257 57.2046H69.4856V55.4731H63.3726C62.0172 55.4731 61.5007 55.0947 61.5007 54.1792V45.2212H59.1654L59.1658 54.1993ZM46.1371 54.2782V48.1078C46.1371 46.5351 47.135 45.579 49.0784 45.281C49.2921 45.2609 49.5058 45.2408 49.7019 45.2408H54.1217C54.3534 45.2408 54.5499 45.2609 54.7816 45.281C56.7242 45.579 57.7041 46.5351 57.7041 48.1078V54.2782C57.7041 55.552 57.2947 56.2293 56.3315 56.6875L58.6129 58.9959H55.9221L54.0681 57.1252L52.1962 57.2447H49.7011C49.2917 57.2447 48.8279 57.1854 48.3465 57.0462C46.8681 56.5876 46.1371 55.7117 46.1371 54.2782ZM48.6501 54.1399C48.6501 54.2193 48.6861 54.2983 48.7041 54.3987C48.8287 55.1148 49.4343 55.5132 50.3611 55.5132H52.4647L50.54 53.5622H53.2309L54.9238 55.2745C55.2454 55.0751 55.4411 54.7962 55.5122 54.438C55.5302 54.3585 55.5302 54.2595 55.5302 54.1792V48.2667C55.5302 48.1873 55.5302 48.1083 55.5122 48.028C55.3876 47.3516 54.782 46.9737 53.8728 46.9737H50.3611C49.3272 46.9737 48.6501 47.4712 48.6501 48.2667V54.1399ZM70.5554 57.2247H70.8942V55.772H71.3396V55.4731H70.092V55.772H70.5554V57.2247ZM73.1396 57.2247H73.4604V55.4731H72.9798L72.5875 56.6679L72.1601 55.4731H71.6967V57.2247H71.9995V55.8916H72.0175L72.4629 57.2247H72.6946L73.14 55.8916V57.2247H73.1396Z" fill="#E8A445"/>
</g>
</svg>
