<svg width="80" height="72" viewBox="0 0 80 72" fill="none" xmlns="http://www.w3.org/2000/svg">
<g opacity="0.5">
<g filter="url(#filter0_d_622_120)">
<path d="M61.1105 20.4154C60.3647 20.1693 59.5919 19.9365 58.7962 19.7164C58.9269 19.2048 59.047 18.6998 59.1537 18.2035C60.9056 10.0528 59.7601 3.48651 55.8488 1.32461C52.0983 -0.748352 45.9646 1.41305 39.7699 6.58019C39.1742 7.07706 38.5769 7.60313 37.9798 8.15445C37.5819 7.78968 37.1847 7.43717 36.7885 7.1C30.2963 1.57495 23.7888 -0.753381 19.8813 1.41477C16.1344 3.49374 15.0248 9.66665 16.6017 17.3911C16.754 18.1372 16.932 18.8991 17.1333 19.6738C16.2123 19.9244 15.3232 20.1915 14.4725 20.4757C6.86101 23.0192 2 27.0054 2 31.1402C2 35.4106 7.2183 39.6939 15.1462 42.2911C15.7718 42.4961 16.421 42.6899 17.0901 42.8739C16.8729 43.7117 16.684 44.5327 16.5255 45.3336C15.0218 52.924 16.1961 58.951 19.933 61.0169C23.7929 63.1503 30.2709 60.9574 36.5789 55.6725C37.0775 55.2547 37.5778 54.8117 38.0791 54.3474C38.7288 54.947 39.3774 55.5145 40.0227 56.0468C46.1326 61.0863 52.1673 63.1213 55.9007 61.0496C59.7568 58.9101 61.01 52.4356 59.383 44.5583C59.2588 43.9566 59.1142 43.342 58.9518 42.7165C59.4067 42.5876 59.8533 42.4545 60.2888 42.3162C68.5306 39.6988 73.893 35.4677 73.893 31.1402C73.893 26.9905 68.8752 22.9774 61.1105 20.4154ZM59.3229 39.522C58.9298 39.6467 58.5264 39.7673 58.1154 39.8842C57.2055 37.1234 55.9775 34.1877 54.4748 31.1546C55.9088 28.1937 57.0893 25.2955 57.9737 22.5526C58.7091 22.7566 59.4229 22.9717 60.1108 23.1988C66.7636 25.3939 70.8217 28.6394 70.8217 31.1402C70.8217 33.804 66.4391 37.262 59.3229 39.522ZM56.3701 45.1299C57.0896 48.6132 57.1923 51.7624 56.7158 54.2243C56.2876 56.4365 55.4265 57.9114 54.3618 58.5021C52.0961 59.7591 47.251 58.1252 42.0256 53.8154C41.4266 53.3214 40.8232 52.7938 40.2179 52.2355C42.2437 50.112 44.2683 47.6434 46.2442 44.9017C49.7197 44.6061 53.0033 44.1228 55.981 43.4631C56.1276 44.0301 56.2579 44.5862 56.3701 45.1299ZM26.5099 58.2849C24.2963 59.0342 22.5333 59.0557 21.4676 58.4667C19.1999 57.213 18.2571 52.3739 19.5431 45.8825C19.6904 45.1391 19.8657 44.3755 20.0678 43.5949C23.0128 44.2191 26.2723 44.6683 29.7561 44.939C31.7454 47.6218 33.8285 50.0877 35.9277 52.2469C35.469 52.6713 35.0122 53.0753 34.5579 53.456C31.7686 55.7929 28.9733 57.451 26.5099 58.2849ZM16.1395 39.5057C12.6339 38.3573 9.7389 36.8647 7.75449 35.236C5.97138 33.7724 5.07112 32.3193 5.07112 31.1402C5.07112 28.6311 8.97403 25.4307 15.4834 23.2554C16.2732 22.9915 17.1 22.7427 17.9581 22.5091C18.8577 25.3139 20.0378 28.2464 21.462 31.2118C20.0194 34.2213 18.8225 37.2005 17.914 40.0382C17.3024 39.8697 16.7097 39.6923 16.1395 39.5057ZM19.6158 16.8258C18.2647 10.2077 19.162 5.21518 21.42 3.9624C23.8252 2.62781 29.1437 4.53065 34.7492 9.30126C35.1075 9.60618 35.4672 9.92532 35.828 10.2555C33.7391 12.4053 31.6751 14.8527 29.7035 17.5197C26.3223 17.82 23.0858 18.3026 20.11 18.9487C19.9229 18.2274 19.7572 17.5187 19.6158 16.8258ZM50.6272 24.1653C49.9158 22.9876 49.1855 21.8377 48.4409 20.7192C50.7348 20.9971 52.9325 21.3661 54.9964 21.8176C54.3768 23.7209 53.6045 25.711 52.6954 27.751C52.0433 26.5644 51.3535 25.3679 50.6272 24.1653ZM37.9808 12.3593C39.3974 13.8302 40.8161 15.4726 42.2114 17.2545C40.8053 17.1908 39.3818 17.1577 37.9465 17.1577C36.5248 17.1577 35.1117 17.1901 33.7143 17.2526C35.1111 15.4873 36.542 13.8472 37.9808 12.3593ZM25.2534 24.1856C24.5428 25.3667 23.8659 26.5566 23.224 27.7488C22.3296 25.7159 21.5645 23.7167 20.9395 21.7864C22.9907 21.3465 25.178 20.9867 27.4573 20.714C26.7023 21.8428 25.966 23.0014 25.2534 24.1856ZM27.5229 41.7764C25.1681 41.5245 22.9478 41.1833 20.8971 40.7555C21.5321 38.7907 22.3141 36.7489 23.2274 34.6721C23.871 35.8635 24.5506 37.0539 25.2656 38.2376C25.9938 39.4434 26.7485 40.6245 27.5229 41.7764ZM38.0658 50.1287C36.6101 48.6234 35.1582 46.9582 33.7402 45.1671C35.1167 45.2189 36.5202 45.2454 37.9465 45.2454C39.4119 45.2454 40.8605 45.2137 42.2863 45.1529C40.8863 46.9762 39.4728 48.644 38.0658 50.1287ZM52.7247 34.5663C53.6856 36.6655 54.4956 38.6966 55.1388 40.6279C53.0543 41.0837 50.8038 41.4508 48.4325 41.7236C49.1788 40.59 49.9155 39.4204 50.6394 38.2173C51.3718 37.0001 52.0672 35.781 52.7247 34.5663ZM47.9791 36.7467C46.8553 38.6143 45.7015 40.3972 44.5302 42.0802C42.3969 42.2264 40.1929 42.3017 37.9465 42.3017C35.7092 42.3017 33.533 42.2351 31.4374 42.1047C30.2189 40.3997 29.04 38.6115 27.9234 36.7628C26.8096 34.919 25.7849 33.0597 24.8561 31.2109C25.7846 29.3577 26.807 27.4963 27.9143 25.6559L27.914 25.6562C29.0243 23.8109 30.1928 22.0315 31.4 20.3371C33.5381 20.1822 35.7306 20.1014 37.9464 20.1014C40.1721 20.1014 42.3676 20.1828 44.505 20.3391C45.6938 22.021 46.8544 23.7947 47.969 25.6403C49.0963 27.5066 50.1318 29.3556 51.0683 31.169C50.1346 33.0136 49.1014 34.8813 47.9791 36.7467ZM54.3147 3.87483C56.7222 5.20549 57.6584 10.5721 56.1458 17.6093C56.0493 18.0584 55.9407 18.5157 55.8227 18.9792C52.84 18.3196 49.6011 17.8287 46.2101 17.5238C44.2346 14.8275 42.1875 12.3763 40.1327 10.2542C40.6852 9.74478 41.2368 9.25907 41.7862 8.80071C47.0938 4.37354 52.0545 2.6256 54.3147 3.87483ZM37.9465 24.9871C41.492 24.9871 44.3663 27.7418 44.3663 31.1402C44.3663 34.5384 41.492 37.2934 37.9465 37.2934C34.401 37.2934 31.5267 34.5384 31.5267 31.1402C31.5267 27.7418 34.401 24.9871 37.9465 24.9871Z" fill="#2EE4D9"/>
</g>
</g>
<defs>
<filter id="filter0_d_622_120" x="0" y="0.544434" width="79.8931" height="71.3076" filterUnits="userSpaceOnUse" color-interpolation-filters="sRGB">
<feFlood flood-opacity="0" result="BackgroundImageFix"/>
<feColorMatrix in="SourceAlpha" type="matrix" values="0 0 0 0 0 0 0 0 0 0 0 0 0 0 0 0 0 0 127 0" result="hardAlpha"/>
<feOffset dx="2" dy="6"/>
<feGaussianBlur stdDeviation="2"/>
<feComposite in2="hardAlpha" operator="out"/>
<feColorMatrix type="matrix" values="0 0 0 0 0.0470588 0 0 0 0 0.00784314 0 0 0 0 0.105882 0 0 0 0.5 0"/>
<feBlend mode="normal" in2="BackgroundImageFix" result="effect1_dropShadow_622_120"/>
<feBlend mode="normal" in="SourceGraphic" in2="effect1_dropShadow_622_120" result="shape"/>
</filter>
</defs>
</svg>
