<svg width="90" height="75" viewBox="0 0 90 75" fill="none" xmlns="http://www.w3.org/2000/svg">
<g opacity="0.45" clip-path="url(#clip0_622_122)" filter="url(#filter0_d_622_122)">
<path d="M14.3426 9.10047C30.3731 -3.3278 56.0051 -2.99371 71.5346 9.90229C73.288 8.03137 74.7908 5.95999 75.8762 3.82179C80.9692 16.2501 84.0584 26.6738 82.8895 34.7588C82.3051 41.5743 78.9654 48.1226 73.455 53.3344C59.0943 66.9654 33.5458 68.7027 16.5134 57.2099L16.1876 56.9779L16.1703 56.9688C16.1169 56.9391 16.0643 56.9081 16.0125 56.8758C15.857 56.779 15.7158 56.6737 15.589 56.5612L15.5433 56.5196L15.0106 56.1408C14.4911 55.7844 13.9716 55.4281 13.5107 55.0248L13.3407 54.8713C-2.18876 42.0421 -1.68781 21.5287 14.3426 9.10047ZM20.3541 52.5994C18.8512 51.664 16.6804 51.7976 15.5115 53.0003C14.4837 54.0579 14.4888 55.5288 15.5267 56.5044L15.5433 56.5196L16.1876 56.9779L16.2508 57.0124C17.7102 57.7804 19.6737 57.6216 20.7937 56.5362L20.855 56.4749C22.0239 55.2722 21.7734 53.5349 20.3541 52.5994ZM75.4588 7.16273C71.2842 14.1787 60.9312 19.5242 51.9975 21.1946C43.5648 22.7983 36.2175 21.4619 28.4528 23.8674C10.7525 29.2797 11.0865 46.118 20.7715 49.9267L21.356 50.194C21.356 50.194 28.3518 49.0808 35.2698 47.6107L35.8624 47.4838C38.6256 46.8879 41.3439 46.2383 43.5648 45.5835C55.0867 42.1757 67.7775 33.7566 71.9521 24.001C69.7813 34.1575 58.8439 43.9798 47.9064 48.4567C42.062 50.8621 37.5534 51.3967 27.9518 54.0694C26.7829 54.4035 25.8645 54.7376 25.8645 54.7376C25.9817 54.7247 26.0989 54.7121 26.2157 54.6998L26.4491 54.6756L26.6812 54.6522C28.8017 54.4419 30.7071 54.3367 30.7071 54.3367C44.3163 53.8022 65.6902 57.4104 75.6257 46.7862C85.8118 35.9616 80.1343 18.4551 75.4588 7.16273Z" fill="#3AAF27" fill-opacity="0.93"/>
<path d="M20.3537 52.5995C21.7731 53.535 22.0236 55.2723 20.8547 56.475C19.6858 57.6778 17.515 57.8114 16.0121 56.8759C14.5093 55.9405 14.3423 54.2032 15.5112 53.0004C16.6801 51.7977 18.8509 51.6641 20.3537 52.5995ZM75.4584 7.16284C80.1339 18.4552 85.8114 35.9617 75.6254 46.7863C65.6898 57.4105 44.3159 53.8023 30.7067 54.3368C30.7067 54.3368 28.8013 54.442 26.6808 54.6523L26.4487 54.6757C26.2547 54.6955 26.0594 54.7162 25.8642 54.7377C25.8642 54.7377 26.7826 54.4036 27.9515 54.0695C37.5531 51.3968 42.0616 50.8623 47.9061 48.4568C58.8435 43.9799 69.7809 34.1576 71.9517 24.0011C67.7771 33.7567 55.0864 42.1758 43.5645 45.5836C35.6327 47.9222 21.3556 50.1941 21.3556 50.1941L20.7712 49.9268C11.0861 46.1181 10.7521 29.2798 28.4524 23.8675C36.2172 21.462 43.5645 22.7984 51.9972 21.1948C60.9308 19.5243 71.2838 14.1788 75.4584 7.16284Z" fill="white"/>
</g>
<defs>
<filter id="filter0_d_622_122" x="0" y="0" width="89.1362" height="74.811" filterUnits="userSpaceOnUse" color-interpolation-filters="sRGB">
<feFlood flood-opacity="0" result="BackgroundImageFix"/>
<feColorMatrix in="SourceAlpha" type="matrix" values="0 0 0 0 0 0 0 0 0 0 0 0 0 0 0 0 0 0 127 0" result="hardAlpha"/>
<feOffset dx="2" dy="6"/>
<feGaussianBlur stdDeviation="2"/>
<feComposite in2="hardAlpha" operator="out"/>
<feColorMatrix type="matrix" values="0 0 0 0 0.0470588 0 0 0 0 0.00784314 0 0 0 0 0.105882 0 0 0 0.5 0"/>
<feBlend mode="normal" in2="BackgroundImageFix" result="effect1_dropShadow_622_122"/>
<feBlend mode="normal" in="SourceGraphic" in2="effect1_dropShadow_622_122" result="shape"/>
</filter>
<clipPath id="clip0_622_122">
<rect width="81.1364" height="64.8109" fill="white" transform="translate(2)"/>
</clipPath>
</defs>
</svg>
