<svg width="68" height="54" viewBox="0 0 68 54" fill="none" xmlns="http://www.w3.org/2000/svg">
<g opacity="0.5">
<rect y="4" width="64" height="50" rx="4" fill="#D9D9D9"/>
<path fill-rule="evenodd" clip-rule="evenodd" d="M68 4C68 1.79086 66.2091 0 64 0H4C1.79086 0 0 1.79086 0 4V50C0 52.2091 1.79086 54 4 54H64C66.2091 54 68 52.2091 68 50V4ZM27.5486 43.9589C27.5486 45.528 26.2766 46.8 24.7076 46.8C23.1385 46.8 21.8665 45.528 21.8665 43.9589V32.9598C21.8665 30.7507 20.0756 28.9598 17.8665 28.9598H15.5797C14.5523 28.9598 13.7195 28.127 13.7195 27.0997C13.7195 26.0724 14.5523 25.2396 15.5797 25.2396H33.8353C34.8627 25.2396 35.6955 26.0724 35.6955 27.0997C35.6955 28.127 34.8627 28.9598 33.8353 28.9598H31.5486C29.3395 28.9598 27.5486 30.7507 27.5486 32.9598V43.9589ZM60.2448 40.3751C60.2448 44.6483 56.0678 47.353 49.2946 47.353C42.8033 47.353 38.7015 44.8877 38.3819 41.0623C38.3717 40.9335 38.4734 40.8233 38.6027 40.8233H43.6877C43.7737 40.8233 43.8462 40.8873 43.8568 40.9727C44.064 42.5866 46.2654 43.6774 49.4451 43.6774C52.4742 43.6774 54.5627 42.5268 54.5627 40.8683V40.8532C54.5627 39.434 53.2268 38.642 49.859 38.0891L46.9989 37.6261C41.3544 36.7146 38.9273 34.6226 38.9273 31.3506V31.3355C38.9273 27.3312 43.2548 24.6866 49.2755 24.6866C55.6163 24.6866 59.3418 27.3463 59.699 30.947C59.7092 31.0512 59.6274 31.1414 59.5227 31.1414H54.5578C54.451 31.1414 54.3589 31.0666 54.337 30.9622C54.0169 29.4232 52.1356 28.3475 49.2755 28.3475C46.4721 28.3622 44.6094 29.3782 44.6094 30.992V31.0068C44.6094 32.4115 45.9267 33.2482 49.125 33.7712L52.0037 34.2342C57.7424 35.1756 60.2448 36.9983 60.2448 40.3603V40.3751Z" fill="#1C519F"/>
</g>
</svg>
