 <svg width="25px" height="26px" viewBox="0 0 19 19" fill="none">
      <path
        fill-rule="evenodd"
        clip-rule="evenodd"
        d="M9.72121 15.9053L9.76364 15.931L9.78061 15.9413C9.8479 15.9798 9.9232 16 9.9997 16C10.0762 16 10.1515 15.9798 10.2188 15.9413L10.2358 15.9316L10.2788 15.9053C10.5158 15.7564 10.7471 15.5975 10.9721 15.4289C11.5546 14.9933 12.0988 14.503 12.5982 13.9638C13.7764 12.6862 15 10.7666 15 8.29669C15 6.89192 14.4732 5.54469 13.5355 4.55137C12.5979 3.55804 11.3261 3 10 3C8.67392 3 7.40215 3.55804 6.46447 4.55137C5.52678 5.54469 5 6.89192 5 8.29669C5 10.7659 6.22424 12.6862 7.40182 13.9638C7.901 14.5029 8.44501 14.9933 9.02727 15.4289C9.25247 15.5975 9.48397 15.7564 9.72121 15.9053ZM10 10.2228C10.4822 10.2228 10.9447 10.0198 11.2856 9.65863C11.6266 9.29742 11.8182 8.80752 11.8182 8.29669C11.8182 7.78587 11.6266 7.29596 11.2856 6.93476C10.9447 6.57355 10.4822 6.37062 10 6.37062C9.51779 6.37062 9.05533 6.57355 8.71435 6.93476C8.37338 7.29596 8.18182 7.78587 8.18182 8.29669C8.18182 8.80752 8.37338 9.29742 8.71435 9.65863C9.05533 10.0198 9.51779 10.2228 10 10.2228Z"
        fill="#6814BB"
      ></path>
    </svg>
