<svg width="518" height="441" viewBox="0 0 518 441" fill="none" xmlns="http://www.w3.org/2000/svg">
<g id="Programmer">
<path id="Vector" d="M255.441 425.367C255.73 426.154 255.765 427.011 255.541 427.818C255.356 428.259 255.091 428.663 254.759 429.008C251.66 432.499 247.038 434.169 242.626 435.699C241.089 436.271 239.51 436.725 237.904 437.059C236.186 437.323 234.447 437.426 232.71 437.369C227.012 437.33 221.321 436.97 215.665 436.289C216.892 433.167 218.882 430.401 221.455 428.242C224.027 426.083 227.1 424.6 230.394 423.927C233.512 423.317 236.721 423.467 239.879 423.157C240.098 423.169 240.316 423.128 240.515 423.037C240.714 422.947 240.888 422.809 241.022 422.637C241.145 422.315 241.145 421.959 241.022 421.637L239.759 416.936C239.604 416.541 239.579 416.106 239.689 415.696C239.899 415.116 240.571 414.856 241.162 414.696C243.298 414.076 244.712 407.825 246.998 407.695C249.284 407.565 252.463 415.026 252.864 417.396C253.345 420.317 255.11 424.137 255.441 425.367Z" fill="#530074"/>
<path id="Vector_2" d="M255.441 425.367C255.73 426.154 255.765 427.011 255.541 427.818C255.356 428.259 255.091 428.663 254.759 429.008C251.66 432.499 247.038 434.169 242.626 435.699C241.089 436.271 239.51 436.725 237.904 437.059C236.186 437.323 234.447 437.426 232.71 437.369C227.012 437.33 221.321 436.97 215.665 436.289C216.892 433.167 218.882 430.401 221.455 428.242C224.027 426.083 227.1 424.6 230.394 423.927C233.512 423.317 236.721 423.467 239.879 423.157C240.098 423.169 240.316 423.128 240.515 423.037C240.714 422.947 240.888 422.809 241.022 422.637C241.145 422.315 241.145 421.959 241.022 421.637L239.759 416.936C239.604 416.541 239.579 416.106 239.689 415.696C239.899 415.116 240.571 414.856 241.162 414.696C243.298 414.076 244.712 407.825 246.998 407.695C249.284 407.565 252.463 415.026 252.864 417.396C253.345 420.317 255.11 424.137 255.441 425.367Z" fill="url(#paint0_linear_44_910)"/>
<path id="Vector_3" d="M318.769 430.978C324.705 436.649 333.719 437.819 341.831 436.889C343.204 436.729 344.768 436.399 345.45 435.199C346.132 433.999 345.621 432.489 344.889 431.318C343.164 428.598 340.367 426.738 337.549 425.157C333.388 422.836 328.992 420.962 324.434 419.567C323.473 419.338 322.562 418.935 321.747 418.376C319.972 416.976 319.802 414.376 318.398 412.575C317.807 411.825 311.119 410.035 310.467 410.575C308.462 412.115 310.858 416.976 311.73 419.257C313.405 423.487 315.41 427.768 318.769 430.978Z" fill="#530074"/>
<path id="Vector_4" d="M318.769 430.978C324.705 436.649 333.719 437.819 341.831 436.889C343.204 436.729 344.768 436.399 345.45 435.199C346.132 433.999 345.621 432.489 344.889 431.318C343.164 428.598 340.367 426.738 337.549 425.157C333.388 422.836 328.992 420.962 324.434 419.567C323.473 419.338 322.562 418.935 321.747 418.376C319.972 416.976 319.802 414.376 318.398 412.575C317.807 411.825 311.119 410.035 310.467 410.575C308.462 412.115 310.858 416.976 311.73 419.257C313.405 423.487 315.41 427.768 318.769 430.978Z" fill="url(#paint1_linear_44_910)"/>
<path id="Vector_5" d="M461.85 240.358H412.619V440.43H461.85V240.358Z" fill="#530074"/>
<path id="Vector_6" d="M101.721 240.358H52.4897V440.43H101.721V240.358Z" fill="#530074"/>
<path id="Vector_7" d="M101.721 240.358H52.4897V296.227H101.721V240.358Z" fill="url(#paint2_linear_44_910)"/>
<path id="Vector_8" d="M461.72 240.358H412.489V296.227H461.72V240.358Z" fill="url(#paint3_linear_44_910)"/>
<path id="Vector_9" d="M472.8 223.986H34.2612V243.989H472.8V223.986Z" fill="#530074"/>
<path id="Vector_10" d="M255.801 271.273C255.801 271.273 189.244 300.378 186.507 305.378C183.769 310.379 184.682 323.111 188.793 328.572C192.904 334.033 238.024 416.336 238.024 416.336L253.064 412.235L223.435 323.111C223.435 323.111 305.494 318.571 311.42 312.66C317.345 306.749 325.547 289.016 325.547 289.016L282.693 250.36L255.801 271.273Z" fill="#530074"/>
<path id="Vector_11" d="M255.801 271.273C255.801 271.273 189.244 300.378 186.507 305.378C183.769 310.379 184.682 323.111 188.793 328.572C192.904 334.033 238.024 416.336 238.024 416.336L253.064 412.235L223.435 323.111C223.435 323.111 305.494 318.571 311.42 312.66C317.345 306.749 325.547 289.016 325.547 289.016L282.693 250.36L255.801 271.273Z" fill="url(#paint4_linear_44_910)"/>
<path id="Vector_12" d="M294.023 59.3794H100.889C95.0576 59.3794 90.3306 64.0946 90.3306 69.9111V183.439C90.3306 189.256 95.0576 193.971 100.889 193.971H294.023C299.854 193.971 304.581 189.256 304.581 183.439V69.9111C304.581 64.0946 299.854 59.3794 294.023 59.3794Z" fill="#530074"/>
<path id="Vector_13" d="M287.737 65.0103H106.634C101.263 65.0103 96.9082 69.3538 96.9082 74.7119V177.388C96.9082 182.746 101.263 187.09 106.634 187.09H287.737C293.108 187.09 297.463 182.746 297.463 177.388V74.7119C297.463 69.3538 293.108 65.0103 287.737 65.0103Z" fill="url(#paint5_linear_44_910)"/>
<path id="Vector_14" d="M287.737 65.0103H106.634C101.263 65.0103 96.9082 69.3538 96.9082 74.7119V177.388C96.9082 182.746 101.263 187.09 106.634 187.09H287.737C293.108 187.09 297.463 182.746 297.463 177.388V74.7119C297.463 69.3538 293.108 65.0103 287.737 65.0103Z" fill="url(#paint6_linear_44_910)"/>
<path id="Vector_15" d="M270.501 116.398C265.487 125.4 258.469 133.121 253.806 142.303C250.427 149.014 248.422 156.305 245.374 163.186C242.326 170.067 237.964 176.728 231.336 180.349C228.639 181.829 225.421 182.969 224.027 185.699C238.143 187.908 252.423 188.912 266.711 188.7C267.624 188.751 268.537 188.604 269.388 188.27C270.381 187.667 271.203 186.82 271.774 185.81C281.48 171.947 297.533 161.976 302.235 145.733C304.411 138.262 303.849 130.301 303.238 122.539C302.496 112.388 301.744 102.216 300.23 92.1346C299.107 84.5234 298.295 76.2521 290.203 73.0216C285.541 71.1513 279.003 71.0213 274.622 73.7617C268.555 77.4923 271.483 81.763 273.799 86.9538C278.311 96.6254 275.484 107.527 270.501 116.398Z" fill="url(#paint7_linear_44_910)"/>
<path id="Vector_16" d="M298.806 114.258C299.096 114.209 299.394 114.262 299.648 114.408C299.813 114.585 299.918 114.809 299.949 115.048C300.15 116.554 300.251 118.07 300.25 119.589C300.261 121.117 300.796 122.595 301.764 123.78C303.268 125.37 305.704 125.52 307.89 125.58C308.351 125.614 308.814 125.577 309.264 125.47C309.864 125.201 310.433 124.865 310.958 124.47C312.513 123.58 314.478 123.73 316.072 122.92C316.686 122.589 317.242 122.16 317.716 121.649C320.875 118.349 321.166 113.178 320.103 108.727C319.04 104.277 316.884 100.166 315.721 95.7252C314.718 91.8146 314.438 87.5539 312.182 84.1934C311.974 83.7973 311.673 83.4575 311.304 83.2031C310.936 82.9488 310.511 82.7875 310.066 82.7332C306.699 82.1345 303.273 81.9297 299.859 82.1231C297.111 82.1231 294.244 82.2731 291.837 83.5833C290.293 84.4134 285.982 77.8524 284.899 79.2226C284.137 80.2228 285.952 100.836 286.202 102.426C288.338 115.878 295.026 114.448 298.806 114.258Z" fill="url(#paint8_linear_44_910)"/>
<path id="Vector_17" d="M267.423 153.054C267.423 153.054 274.722 127.13 289.993 122.359C305.263 117.589 328.285 116.218 333.529 117.579C338.773 118.939 353.813 127.36 355.407 151.464C357.001 175.568 358.365 187.61 358.365 187.61L354.264 289.016C354.264 289.016 298.194 298.107 283.154 291.286L277.68 266.282L272.215 285.835L255.802 271.283L264.916 240.818C264.916 240.818 263.552 168.057 267.423 153.054Z" fill="#530074"/>
<path id="Vector_18" d="M267.423 153.054C267.423 153.054 274.722 127.13 289.993 122.359C305.263 117.589 328.285 116.218 333.529 117.579C338.773 118.939 353.813 127.36 355.407 151.464C357.001 175.568 358.365 187.61 358.365 187.61L354.264 289.016C354.264 289.016 298.194 298.107 283.154 291.286L277.68 266.282L272.215 285.835L255.802 271.283L264.916 240.818C264.916 240.818 263.552 168.057 267.423 153.054Z" fill="url(#paint9_linear_44_910)"/>
<path id="Vector_19" opacity="0.48" d="M326.129 187.89C322.429 193.991 320.735 201.052 319.11 207.973L308.452 252.9C306.236 262.262 303.97 271.763 299.368 280.215C294.765 288.666 287.466 296.127 278.191 298.767C271.313 300.768 263.973 299.938 256.864 300.718C249.73 301.559 242.872 303.97 236.784 307.775C230.697 311.58 225.531 316.684 221.661 322.721C251 323.11 280.332 321.473 309.444 317.82C313.746 317.28 318.198 316.64 321.868 314.33C326.169 311.61 328.816 306.949 330.892 302.328C335.414 292.446 338.321 281.915 340.918 271.323C345.129 253.957 348.449 236.388 350.865 218.685C353.071 202.552 357.573 182.369 354.805 166.336C344.207 168.717 331.764 178.648 326.129 187.89Z" fill="url(#paint10_linear_44_910)"/>
<path id="Vector_20" d="M237.513 221.035L263.783 220.805L264.465 208.753L237.513 221.035Z" stroke="#3CB6D5" stroke-width="1.28" stroke-miterlimit="10"/>
<path id="Vector_21" d="M253.987 322.661L308.682 414.516L320.534 411.785L293.181 319.481L253.987 322.661Z" fill="#530074"/>
<path id="Vector_22" d="M253.987 322.661L308.682 414.516L320.534 411.785L293.181 319.481L253.987 322.661Z" fill="url(#paint11_linear_44_910)"/>
<path id="Vector_23" d="M424.932 223.536C422.646 232.647 403.024 308.549 403.024 308.549C403.024 308.549 398.01 329.472 382.529 329.472C374.217 329.472 333.519 328.752 297.573 328.072C266.49 327.492 238.947 326.952 238.947 326.952C238.947 326.952 235.307 313.54 246.677 312.61C258.047 311.68 290.434 312.61 290.434 312.61C290.434 312.61 306.416 311.74 312.783 295.807C318.027 282.805 329.969 230.007 334.15 211.404C335.259 206.327 337.519 201.571 340.758 197.501C347.947 188.34 362.225 173.808 381.165 172.597C400.838 171.287 413.472 178.648 419.979 185.189C422.065 187.158 423.747 189.512 424.932 192.121C427.208 198.051 427.208 214.424 424.932 223.536Z" fill="#530074"/>
<path id="Vector_24" d="M419.979 185.209C419.979 185.789 419.979 186.33 419.929 186.91C419.929 186.91 381.607 173.297 352.9 216.264L326.229 309.679C326.229 309.679 320.935 327.412 297.573 328.092C266.49 327.512 238.947 326.972 238.947 326.972C238.947 326.972 235.307 313.56 246.677 312.63C258.047 311.699 290.434 312.63 290.434 312.63C290.434 312.63 306.416 311.759 312.783 295.827C318.027 282.825 329.969 230.027 334.15 211.424C335.259 206.347 337.519 201.591 340.758 197.521C347.947 188.36 362.225 173.828 381.165 172.617C400.838 171.307 413.472 178.668 419.979 185.209Z" fill="url(#paint12_linear_44_910)"/>
<path id="Vector_25" d="M320.073 328.382H312.783V440.89H320.073V328.382Z" fill="#530074"/>
<path id="Vector_26" d="M320.073 328.382H312.783V440.89H320.073V328.382Z" fill="url(#paint13_linear_44_910)"/>
<path id="Vector_27" d="M344.628 431.999H292.108C289.616 431.999 287.596 434.014 287.596 436.499C287.596 438.985 289.616 441 292.108 441H344.628C347.12 441 349.14 438.985 349.14 436.499C349.14 434.014 347.12 431.999 344.628 431.999Z" fill="#530074"/>
<path id="Vector_28" d="M344.628 431.999H292.108C289.616 431.999 287.596 434.014 287.596 436.499C287.596 438.985 289.616 441 292.108 441H344.628C347.12 441 349.14 438.985 349.14 436.499C349.14 434.014 347.12 431.999 344.628 431.999Z" fill="url(#paint14_linear_44_910)"/>
<path id="Vector_29" d="M233.472 193.911H171.246V219.605H233.472V193.911Z" fill="#530074"/>
<path id="Vector_30" d="M233.472 193.911H171.246V219.605H233.472V193.911Z" fill="url(#paint15_linear_44_910)"/>
<path id="Vector_31" d="M257.075 213.004H143.111V223.916H257.075V213.004Z" fill="#530074"/>
<path id="Vector_32" d="M258.87 213.804H144.906V222.355H258.87V213.804Z" fill="url(#paint16_linear_44_910)"/>
<path id="Vector_33" d="M296.901 61.9399C295.016 63.3401 293.382 65.0703 291.396 66.3205C288.666 67.9393 285.549 68.796 282.372 68.8009C280.216 68.871 277.579 68.901 276.547 70.8013C275.694 72.3515 276.547 74.3118 277.63 75.692C278.65 76.9452 279.903 77.991 281.319 78.7725C282.043 79.1058 282.718 79.5366 283.325 80.0527C284.558 81.3029 284.568 83.2832 285.33 84.8635C286.413 87.0838 288.88 88.264 290.464 90.1643C293.582 93.8949 292.82 99.6558 295.477 103.696C297.085 105.859 299.301 107.495 301.844 108.397C305.259 109.877 309.016 110.389 312.703 109.877C316.387 109.353 319.716 107.402 321.968 104.447C323.863 101.816 324.625 98.5557 325.166 95.3652C326.239 89.0742 326.61 82.5431 325.026 76.3621C321.897 64.2102 309.003 52.9684 296.901 61.9399Z" fill="#3F3D56"/>
<path id="Vector_34" d="M296.901 61.9399C295.016 63.3401 293.382 65.0703 291.396 66.3205C288.666 67.9393 285.549 68.796 282.372 68.8009C280.216 68.871 277.579 68.901 276.547 70.8013C275.694 72.3515 276.547 74.3118 277.63 75.692C278.65 76.9452 279.903 77.991 281.319 78.7725C282.043 79.1058 282.718 79.5366 283.325 80.0527C284.558 81.3029 284.568 83.2832 285.33 84.8635C286.413 87.0838 288.88 88.264 290.464 90.1643C293.582 93.8949 292.82 99.6558 295.477 103.696C297.085 105.859 299.301 107.495 301.844 108.397C305.259 109.877 309.016 110.389 312.703 109.877C316.387 109.353 319.716 107.402 321.968 104.447C323.863 101.816 324.625 98.5557 325.166 95.3652C326.239 89.0742 326.61 82.5431 325.026 76.3621C321.897 64.2102 309.003 52.9684 296.901 61.9399Z" fill="url(#paint17_linear_44_910)"/>
<path id="Vector_35" d="M300.09 132.191C301.412 134.032 302.317 136.137 302.743 138.362C303.169 140.586 303.105 142.876 302.556 145.073C299.929 156.445 292.66 183.429 280.417 195.081C264.685 210.083 240.762 225.776 191.179 224.416L191.871 210.773C191.871 210.773 245.544 205.993 250.327 188.26C255.11 170.527 273.92 132.331 280.758 128.58C286.132 125.66 294.685 125.03 300.09 132.191Z" fill="#530074"/>
<path id="Vector_36" d="M300.09 132.191C301.412 134.032 302.317 136.137 302.743 138.362C303.169 140.586 303.105 142.876 302.556 145.073C299.929 156.445 292.66 183.429 280.417 195.081C264.685 210.083 240.762 225.776 191.179 224.416L191.871 210.773C191.871 210.773 245.544 205.993 250.327 188.26C255.11 170.527 273.92 132.331 280.758 128.58C286.132 125.66 294.685 125.03 300.09 132.191Z" fill="url(#paint18_linear_44_910)"/>
<path id="Vector_37" d="M180.661 210.073C176.601 209.297 172.407 209.613 168.51 210.987C164.612 212.362 161.151 214.746 158.482 217.895L170.364 219.055C171.135 219.063 171.892 219.27 172.56 219.655C173.069 220.13 173.555 220.631 174.014 221.155C175.039 221.868 176.274 222.22 177.523 222.155C181.243 222.325 184.973 222.335 188.693 222.155C189.154 222.185 189.612 222.062 189.996 221.805C190.289 221.508 190.482 221.127 190.548 220.715C191.039 218.815 192.122 213.494 190.277 212.164C189.415 211.554 186.768 211.634 185.655 211.344C183.99 210.963 182.356 210.413 180.661 210.073Z" fill="url(#paint19_linear_44_910)"/>
<path id="Vector_38" opacity="0.18" d="M442.449 51.4982V97.9555C442.446 100.418 441.464 102.779 439.717 104.519C437.97 106.259 435.603 107.237 433.134 107.237H398.963L384.464 128.81V107.237H360.861C359.639 107.238 358.428 106.999 357.298 106.533C356.168 106.068 355.141 105.384 354.275 104.522C353.41 103.66 352.724 102.636 352.256 101.51C351.788 100.383 351.547 99.1752 351.547 97.9555V51.4982C351.547 50.2785 351.788 49.0707 352.256 47.944C352.724 46.8172 353.41 45.7936 354.275 44.9316C355.141 44.0696 356.168 43.3862 357.298 42.9203C358.428 42.4545 359.639 42.2154 360.861 42.2167H433.134C435.603 42.2167 437.97 43.1942 439.717 44.9346C441.464 46.6749 442.446 49.0356 442.449 51.4982Z" fill="#530074"/>
<path id="Vector_39" d="M438.849 49.1078V95.5652C438.849 96.7849 438.608 97.9926 438.14 99.1193C437.672 100.246 436.985 101.27 436.12 102.132C435.255 102.994 434.228 103.677 433.098 104.143C431.968 104.609 430.757 104.848 429.534 104.847H395.373L380.865 126.42V104.877H357.272C356.049 104.878 354.837 104.639 353.706 104.173C352.576 103.707 351.548 103.024 350.682 102.162C349.816 101.3 349.129 100.277 348.66 99.1501C348.191 98.0233 347.948 96.8153 347.947 95.5952V49.1078C347.948 47.8876 348.191 46.6796 348.66 45.5528C349.129 44.426 349.816 43.4025 350.682 42.5406C351.548 41.6788 352.576 40.9955 353.706 40.5297C354.837 40.064 356.049 39.825 357.272 39.8263H429.534C430.757 39.825 431.968 40.0641 433.098 40.5299C434.228 40.9958 435.255 41.6792 436.12 42.5412C436.985 43.4032 437.672 44.4269 438.14 45.5536C438.608 46.6803 438.849 47.8881 438.849 49.1078Z" fill="white"/>
<path id="Vector_40" d="M118.395 73.0816H109.933V177.498H118.395V73.0816Z" fill="url(#paint20_linear_44_910)"/>
<path id="Vector_41" d="M374.508 73.0816L389.167 65.5504V67.7308L376.814 73.8717V73.9417L389.167 80.1127V82.2931L374.508 74.7619V73.0816Z" fill="#530074"/>
<path id="Vector_42" d="M391.212 83.5832L400.026 60.7296H402.171L393.328 83.5832H391.212Z" fill="#530074"/>
<path id="Vector_43" d="M418.816 74.8719L404.167 82.3731V80.1427L416.61 73.9718V73.8717L404.167 67.7008V65.5504L418.816 73.0516V74.8719Z" fill="#530074"/>
<path id="Vector_44" d="M161.731 89.6942H134.528V91.6845H161.731V89.6942Z" fill="url(#paint21_linear_44_910)"/>
<path id="Vector_45" d="M151.133 93.5449H134.528V95.4152H151.133V93.5449Z" fill="url(#paint22_linear_44_910)"/>
<path id="Vector_46" d="M210.08 93.5449H157.831V95.4252H210.08V93.5449Z" fill="url(#paint23_linear_44_910)"/>
<path id="Vector_47" d="M244.371 93.5449H214.963V95.4252H244.371V93.5449Z" fill="url(#paint24_linear_44_910)"/>
<path id="Vector_48" d="M165.992 97.4055H143.161V99.3758H165.992V97.4055Z" fill="url(#paint25_linear_44_910)"/>
<path id="Vector_49" d="M177.693 101.256H150.491V103.246H177.693V101.256Z" fill="url(#paint26_linear_44_910)"/>
<path id="Vector_50" d="M202.269 101.256H179.468V103.466H202.269V101.256Z" fill="url(#paint27_linear_44_910)"/>
<path id="Vector_51" d="M171.457 105.107H150.451V106.977H171.457V105.107Z" fill="url(#paint28_linear_44_910)"/>
<path id="Vector_52" d="M253.134 105.107H232.128V106.977H253.134V105.107Z" fill="url(#paint29_linear_44_910)"/>
<path id="Vector_53" d="M216.818 105.107H173.472V107.177H216.818V105.107Z" fill="url(#paint30_linear_44_910)"/>
<path id="Vector_54" d="M230.494 105.107H220.939V107.217H230.494V105.107Z" fill="url(#paint31_linear_44_910)"/>
<path id="Vector_55" d="M161.731 110.318H134.528V112.308H161.731V110.318Z" fill="url(#paint32_linear_44_910)"/>
<path id="Vector_56" d="M151.133 114.168H134.528V116.038H151.133V114.168Z" fill="url(#paint33_linear_44_910)"/>
<path id="Vector_57" d="M210.08 114.168H157.831V116.048H210.08V114.168Z" fill="url(#paint34_linear_44_910)"/>
<path id="Vector_58" d="M244.371 114.168H214.963V116.048H244.371V114.168Z" fill="url(#paint35_linear_44_910)"/>
<path id="Vector_59" d="M165.992 118.019H143.161V119.989H165.992V118.019Z" fill="url(#paint36_linear_44_910)"/>
<path id="Vector_60" d="M177.693 121.879H150.491V123.87H177.693V121.879Z" fill="url(#paint37_linear_44_910)"/>
<path id="Vector_61" d="M202.269 121.879H179.468V124.09H202.269V121.879Z" fill="url(#paint38_linear_44_910)"/>
<path id="Vector_62" d="M171.457 125.73H150.451V127.6H171.457V125.73Z" fill="url(#paint39_linear_44_910)"/>
<path id="Vector_63" d="M253.134 125.73H232.128V127.6H253.134V125.73Z" fill="url(#paint40_linear_44_910)"/>
<path id="Vector_64" d="M216.818 125.73H173.472V127.8H216.818V125.73Z" fill="url(#paint41_linear_44_910)"/>
<path id="Vector_65" d="M230.494 125.73H220.939V127.84H230.494V125.73Z" fill="url(#paint42_linear_44_910)"/>
<path id="Vector_66" d="M161.731 130.941H134.528V132.931H161.731V130.941Z" fill="url(#paint43_linear_44_910)"/>
<path id="Vector_67" d="M151.133 134.791H134.528V136.662H151.133V134.791Z" fill="url(#paint44_linear_44_910)"/>
<path id="Vector_68" d="M210.08 134.791H157.831V136.672H210.08V134.791Z" fill="url(#paint45_linear_44_910)"/>
<path id="Vector_69" d="M244.371 134.791H214.963V136.672H244.371V134.791Z" fill="url(#paint46_linear_44_910)"/>
<path id="Vector_70" d="M165.992 138.642H143.161V140.612H165.992V138.642Z" fill="url(#paint47_linear_44_910)"/>
<path id="Vector_71" d="M177.693 142.493H150.491V144.483H177.693V142.493Z" fill="url(#paint48_linear_44_910)"/>
<path id="Vector_72" d="M202.269 142.493H179.468V144.703H202.269V142.493Z" fill="url(#paint49_linear_44_910)"/>
<path id="Vector_73" d="M171.457 146.353H150.451V148.224H171.457V146.353Z" fill="url(#paint50_linear_44_910)"/>
<path id="Vector_74" d="M253.134 146.353H232.128V148.224H253.134V146.353Z" fill="url(#paint51_linear_44_910)"/>
<path id="Vector_75" d="M216.818 146.353H173.472V148.424H216.818V146.353Z" fill="url(#paint52_linear_44_910)"/>
<path id="Vector_76" d="M230.494 146.353H220.939V148.464H230.494V146.353Z" fill="url(#paint53_linear_44_910)"/>
</g>
<defs>
<linearGradient id="paint0_linear_44_910" x1="207.473" y1="408.095" x2="283.48" y2="452.187" gradientUnits="userSpaceOnUse">
<stop stop-opacity="0"/>
<stop offset="0.99"/>
</linearGradient>
<linearGradient id="paint1_linear_44_910" x1="337.579" y1="411.135" x2="313.988" y2="440.178" gradientUnits="userSpaceOnUse">
<stop stop-opacity="0"/>
<stop offset="0.99"/>
</linearGradient>
<linearGradient id="paint2_linear_44_910" x1="4.68238" y1="255.661" x2="936.947" y2="419.04" gradientUnits="userSpaceOnUse">
<stop stop-opacity="0"/>
<stop offset="0.99"/>
</linearGradient>
<linearGradient id="paint3_linear_44_910" x1="364.672" y1="255.661" x2="1296.94" y2="419.04" gradientUnits="userSpaceOnUse">
<stop stop-opacity="0"/>
<stop offset="0.99"/>
</linearGradient>
<linearGradient id="paint4_linear_44_910" x1="161.801" y1="336.623" x2="628.592" y2="321.013" gradientUnits="userSpaceOnUse">
<stop stop-opacity="0"/>
<stop offset="0.99"/>
</linearGradient>
<linearGradient id="paint5_linear_44_910" x1="197.466" y1="120.659" x2="167.646" y2="704.049" gradientUnits="userSpaceOnUse">
<stop stop-opacity="0"/>
<stop offset="0.99"/>
</linearGradient>
<linearGradient id="paint6_linear_44_910" x1="194.949" y1="234.187" x2="199.419" y2="17.2123" gradientUnits="userSpaceOnUse">
<stop stop-color="white" stop-opacity="0"/>
<stop offset="0.99" stop-color="white"/>
</linearGradient>
<linearGradient id="paint7_linear_44_910" x1="233.923" y1="128.03" x2="724.681" y2="158.065" gradientUnits="userSpaceOnUse">
<stop stop-opacity="0"/>
<stop offset="0.99"/>
</linearGradient>
<linearGradient id="paint8_linear_44_910" x1="284.708" y1="102.326" x2="320.654" y2="102.326" gradientUnits="userSpaceOnUse">
<stop stop-color="#ECC4D7"/>
<stop offset="0.42" stop-color="#EFD4D1"/>
<stop offset="1" stop-color="#F2EAC9"/>
</linearGradient>
<linearGradient id="paint9_linear_44_910" x1="266.741" y1="200.162" x2="754.779" y2="256.027" gradientUnits="userSpaceOnUse">
<stop stop-opacity="0"/>
<stop offset="0.99"/>
</linearGradient>
<linearGradient id="paint10_linear_44_910" x1="249.655" y1="222.475" x2="691.334" y2="476.272" gradientUnits="userSpaceOnUse">
<stop stop-opacity="0"/>
<stop offset="0.99"/>
</linearGradient>
<linearGradient id="paint11_linear_44_910" x1="282.543" y1="399.103" x2="329.058" y2="82.8694" gradientUnits="userSpaceOnUse">
<stop stop-opacity="0"/>
<stop offset="0.99"/>
</linearGradient>
<linearGradient id="paint12_linear_44_910" x1="284.007" y1="336.623" x2="430.247" y2="64.3539" gradientUnits="userSpaceOnUse">
<stop stop-color="white" stop-opacity="0"/>
<stop offset="0.99" stop-color="white"/>
</linearGradient>
<linearGradient id="paint13_linear_44_910" x1="315.089" y1="419.647" x2="321.055" y2="263.341" gradientUnits="userSpaceOnUse">
<stop stop-opacity="0"/>
<stop offset="0.99"/>
</linearGradient>
<linearGradient id="paint14_linear_44_910" x1="308.472" y1="428.748" x2="365.585" y2="473.714" gradientUnits="userSpaceOnUse">
<stop stop-opacity="0"/>
<stop offset="0.99"/>
</linearGradient>
<linearGradient id="paint15_linear_44_910" x1="202.379" y1="213.364" x2="202.18" y2="155.575" gradientUnits="userSpaceOnUse">
<stop stop-opacity="0"/>
<stop offset="0.99"/>
</linearGradient>
<linearGradient id="paint16_linear_44_910" x1="201.396" y1="204.572" x2="203.073" y2="250.6" gradientUnits="userSpaceOnUse">
<stop stop-opacity="0"/>
<stop offset="0.99"/>
</linearGradient>
<linearGradient id="paint17_linear_44_910" x1="295.457" y1="77.1323" x2="334.947" y2="101.725" gradientUnits="userSpaceOnUse">
<stop stop-opacity="0"/>
<stop offset="0.99"/>
</linearGradient>
<linearGradient id="paint18_linear_44_910" x1="252.332" y1="185.77" x2="223.046" y2="152.821" gradientUnits="userSpaceOnUse">
<stop stop-color="white" stop-opacity="0"/>
<stop offset="0.99" stop-color="white"/>
</linearGradient>
<linearGradient id="paint19_linear_44_910" x1="158.482" y1="215.974" x2="191.31" y2="215.974" gradientUnits="userSpaceOnUse">
<stop stop-color="#ECC4D7"/>
<stop offset="0.42" stop-color="#EFD4D1"/>
<stop offset="1" stop-color="#F2EAC9"/>
</linearGradient>
<linearGradient id="paint20_linear_44_910" x1="88.1749" y1="129.701" x2="162.172" y2="117.087" gradientUnits="userSpaceOnUse">
<stop stop-color="white" stop-opacity="0"/>
<stop offset="0.99" stop-color="white"/>
</linearGradient>
<linearGradient id="paint21_linear_44_910" x1="149.157" y1="35.7257" x2="147.671" y2="115.528" gradientUnits="userSpaceOnUse">
<stop stop-color="white" stop-opacity="0"/>
<stop offset="0.99" stop-color="white"/>
</linearGradient>
<linearGradient id="paint22_linear_44_910" x1="143.933" y1="35.6356" x2="142.447" y2="115.429" gradientUnits="userSpaceOnUse">
<stop stop-color="white" stop-opacity="0"/>
<stop offset="0.99" stop-color="white"/>
</linearGradient>
<linearGradient id="paint23_linear_44_910" x1="185.043" y1="36.3956" x2="183.547" y2="116.199" gradientUnits="userSpaceOnUse">
<stop stop-color="white" stop-opacity="0"/>
<stop offset="0.99" stop-color="white"/>
</linearGradient>
<linearGradient id="paint24_linear_44_910" x1="230.735" y1="37.2558" x2="229.248" y2="117.049" gradientUnits="userSpaceOnUse">
<stop stop-color="white" stop-opacity="0"/>
<stop offset="0.99" stop-color="white"/>
</linearGradient>
<linearGradient id="paint25_linear_44_910" x1="155.755" y1="35.8556" x2="154.258" y2="115.649" gradientUnits="userSpaceOnUse">
<stop stop-color="white" stop-opacity="0"/>
<stop offset="0.99" stop-color="white"/>
</linearGradient>
<linearGradient id="paint26_linear_44_910" x1="165.341" y1="36.0256" x2="163.844" y2="115.829" gradientUnits="userSpaceOnUse">
<stop stop-color="white" stop-opacity="0"/>
<stop offset="0.99" stop-color="white"/>
</linearGradient>
<linearGradient id="paint27_linear_44_910" x1="192.102" y1="36.5259" x2="190.615" y2="116.329" gradientUnits="userSpaceOnUse">
<stop stop-color="white" stop-opacity="0"/>
<stop offset="0.99" stop-color="white"/>
</linearGradient>
<linearGradient id="paint28_linear_44_910" x1="162.272" y1="35.9756" x2="160.786" y2="115.769" gradientUnits="userSpaceOnUse">
<stop stop-color="white" stop-opacity="0"/>
<stop offset="0.99" stop-color="white"/>
</linearGradient>
<linearGradient id="paint29_linear_44_910" x1="243.92" y1="37.4959" x2="242.433" y2="117.299" gradientUnits="userSpaceOnUse">
<stop stop-color="white" stop-opacity="0"/>
<stop offset="0.99" stop-color="white"/>
</linearGradient>
<linearGradient id="paint30_linear_44_910" x1="196.453" y1="36.6156" x2="194.967" y2="116.409" gradientUnits="userSpaceOnUse">
<stop stop-color="white" stop-opacity="0"/>
<stop offset="0.99" stop-color="white"/>
</linearGradient>
<linearGradient id="paint31_linear_44_910" x1="227.015" y1="37.1859" x2="225.518" y2="116.979" gradientUnits="userSpaceOnUse">
<stop stop-color="white" stop-opacity="0"/>
<stop offset="0.99" stop-color="white"/>
</linearGradient>
<linearGradient id="paint32_linear_44_910" x1="149.157" y1="56.349" x2="147.671" y2="136.152" gradientUnits="userSpaceOnUse">
<stop stop-color="white" stop-opacity="0"/>
<stop offset="0.99" stop-color="white"/>
</linearGradient>
<linearGradient id="paint33_linear_44_910" x1="143.933" y1="56.2491" x2="142.447" y2="136.052" gradientUnits="userSpaceOnUse">
<stop stop-color="white" stop-opacity="0"/>
<stop offset="0.99" stop-color="white"/>
</linearGradient>
<linearGradient id="paint34_linear_44_910" x1="185.043" y1="57.0192" x2="183.547" y2="136.822" gradientUnits="userSpaceOnUse">
<stop stop-color="white" stop-opacity="0"/>
<stop offset="0.99" stop-color="white"/>
</linearGradient>
<linearGradient id="paint35_linear_44_910" x1="230.735" y1="57.8693" x2="229.248" y2="137.672" gradientUnits="userSpaceOnUse">
<stop stop-color="white" stop-opacity="0"/>
<stop offset="0.99" stop-color="white"/>
</linearGradient>
<linearGradient id="paint36_linear_44_910" x1="155.755" y1="56.4689" x2="154.258" y2="136.272" gradientUnits="userSpaceOnUse">
<stop stop-color="white" stop-opacity="0"/>
<stop offset="0.99" stop-color="white"/>
</linearGradient>
<linearGradient id="paint37_linear_44_910" x1="165.341" y1="56.6491" x2="163.844" y2="136.452" gradientUnits="userSpaceOnUse">
<stop stop-color="white" stop-opacity="0"/>
<stop offset="0.99" stop-color="white"/>
</linearGradient>
<linearGradient id="paint38_linear_44_910" x1="192.102" y1="57.1491" x2="190.615" y2="136.952" gradientUnits="userSpaceOnUse">
<stop stop-color="white" stop-opacity="0"/>
<stop offset="0.99" stop-color="white"/>
</linearGradient>
<linearGradient id="paint39_linear_44_910" x1="162.272" y1="56.5989" x2="160.786" y2="136.392" gradientUnits="userSpaceOnUse">
<stop stop-color="white" stop-opacity="0"/>
<stop offset="0.99" stop-color="white"/>
</linearGradient>
<linearGradient id="paint40_linear_44_910" x1="243.92" y1="58.1191" x2="242.433" y2="137.912" gradientUnits="userSpaceOnUse">
<stop stop-color="white" stop-opacity="0"/>
<stop offset="0.99" stop-color="white"/>
</linearGradient>
<linearGradient id="paint41_linear_44_910" x1="196.453" y1="57.2291" x2="194.967" y2="137.032" gradientUnits="userSpaceOnUse">
<stop stop-color="white" stop-opacity="0"/>
<stop offset="0.99" stop-color="white"/>
</linearGradient>
<linearGradient id="paint42_linear_44_910" x1="227.015" y1="57.8092" x2="225.518" y2="137.602" gradientUnits="userSpaceOnUse">
<stop stop-color="white" stop-opacity="0"/>
<stop offset="0.99" stop-color="white"/>
</linearGradient>
<linearGradient id="paint43_linear_44_910" x1="149.157" y1="76.9721" x2="147.671" y2="156.765" gradientUnits="userSpaceOnUse">
<stop stop-color="white" stop-opacity="0"/>
<stop offset="0.99" stop-color="white"/>
</linearGradient>
<linearGradient id="paint44_linear_44_910" x1="143.933" y1="76.8723" x2="142.447" y2="156.675" gradientUnits="userSpaceOnUse">
<stop stop-color="white" stop-opacity="0"/>
<stop offset="0.99" stop-color="white"/>
</linearGradient>
<linearGradient id="paint45_linear_44_910" x1="185.043" y1="77.6426" x2="183.547" y2="157.435" gradientUnits="userSpaceOnUse">
<stop stop-color="white" stop-opacity="0"/>
<stop offset="0.99" stop-color="white"/>
</linearGradient>
<linearGradient id="paint46_linear_44_910" x1="230.735" y1="78.4928" x2="229.248" y2="158.295" gradientUnits="userSpaceOnUse">
<stop stop-color="white" stop-opacity="0"/>
<stop offset="0.99" stop-color="white"/>
</linearGradient>
<linearGradient id="paint47_linear_44_910" x1="155.755" y1="77.0922" x2="154.258" y2="156.895" gradientUnits="userSpaceOnUse">
<stop stop-color="white" stop-opacity="0"/>
<stop offset="0.99" stop-color="white"/>
</linearGradient>
<linearGradient id="paint48_linear_44_910" x1="165.341" y1="77.2721" x2="163.844" y2="157.075" gradientUnits="userSpaceOnUse">
<stop stop-color="white" stop-opacity="0"/>
<stop offset="0.99" stop-color="white"/>
</linearGradient>
<linearGradient id="paint49_linear_44_910" x1="192.102" y1="77.7726" x2="190.615" y2="157.575" gradientUnits="userSpaceOnUse">
<stop stop-color="white" stop-opacity="0"/>
<stop offset="0.99" stop-color="white"/>
</linearGradient>
<linearGradient id="paint50_linear_44_910" x1="162.272" y1="77.2125" x2="160.786" y2="157.015" gradientUnits="userSpaceOnUse">
<stop stop-color="white" stop-opacity="0"/>
<stop offset="0.99" stop-color="white"/>
</linearGradient>
<linearGradient id="paint51_linear_44_910" x1="243.92" y1="78.7427" x2="242.433" y2="158.535" gradientUnits="userSpaceOnUse">
<stop stop-color="white" stop-opacity="0"/>
<stop offset="0.99" stop-color="white"/>
</linearGradient>
<linearGradient id="paint52_linear_44_910" x1="196.453" y1="77.8527" x2="194.967" y2="157.655" gradientUnits="userSpaceOnUse">
<stop stop-color="white" stop-opacity="0"/>
<stop offset="0.99" stop-color="white"/>
</linearGradient>
<linearGradient id="paint53_linear_44_910" x1="227.015" y1="78.4225" x2="225.518" y2="158.225" gradientUnits="userSpaceOnUse">
<stop stop-color="white" stop-opacity="0"/>
<stop offset="0.99" stop-color="white"/>
</linearGradient>
</defs>
</svg>
