<svg width="584" height="513" viewBox="0 0 584 513" fill="none" xmlns="http://www.w3.org/2000/svg">
<g id="SkillBanner">
<path id="Ocean" opacity="0.18" d="M365.921 512.791C394.061 513.145 422.29 513.476 450.226 509.957C464.166 508.21 478.219 505.424 490.722 498.754C504.492 491.411 515.674 479.735 525.882 467.598C547.917 441.413 566.819 411.698 576.757 378.429C586.694 345.16 587.135 307.996 573.501 276.179C564.457 254.929 549.386 236.464 543.824 213.986C534.599 176.703 553.174 136.068 542.298 99.2691C538.137 85.1966 529.862 72.7887 520.501 61.7975C482.967 17.8445 424.405 -5.49561 368.409 1.10383C298.405 9.3679 237.412 60.2981 167.171 65.1739C143.43 66.8149 119.214 63.0843 95.9471 68.2434C55.1683 77.2631 22.0207 115.75 17.7359 159.042C14.887 187.954 23.6713 216.512 29.878 244.846C36.4352 274.821 40.0529 306.52 31.913 336.058C25.7628 358.3 13.2138 378.11 6.56615 400.187C0.404674 420.446 -0.499763 442.015 0.201175 463.23C0.415979 469.511 0.83428 475.98 3.44584 481.647C12.298 500.784 46.7231 506.368 64.7666 508.057C96.6706 511.067 129.954 509.037 161.994 509.615C229.985 510.859 297.961 511.917 365.921 512.791Z" fill="#FF65F9"/>
<g id="Programmer">
<path id="Vector" d="M294.441 450.367C294.73 451.154 294.765 452.011 294.541 452.818C294.356 453.259 294.091 453.663 293.759 454.008C290.66 457.499 286.038 459.169 281.626 460.699C280.089 461.271 278.51 461.725 276.904 462.059C275.186 462.323 273.447 462.426 271.71 462.369C266.012 462.33 260.321 461.97 254.665 461.289C255.892 458.167 257.882 455.401 260.455 453.242C263.027 451.083 266.1 449.6 269.394 448.927C272.512 448.317 275.721 448.467 278.879 448.157C279.098 448.169 279.316 448.128 279.515 448.037C279.714 447.947 279.888 447.809 280.022 447.637C280.145 447.315 280.145 446.959 280.022 446.637L278.759 441.936C278.604 441.541 278.579 441.106 278.689 440.696C278.899 440.116 279.571 439.856 280.162 439.696C282.298 439.076 283.712 432.825 285.998 432.695C288.284 432.565 291.463 440.026 291.864 442.396C292.345 445.317 294.11 449.137 294.441 450.367Z" fill="#530074"/>
<path id="Vector_2" d="M294.441 450.367C294.73 451.154 294.765 452.011 294.541 452.818C294.356 453.259 294.091 453.663 293.759 454.008C290.66 457.499 286.038 459.169 281.626 460.699C280.089 461.271 278.51 461.725 276.904 462.059C275.186 462.323 273.447 462.426 271.71 462.369C266.012 462.33 260.321 461.97 254.665 461.289C255.892 458.167 257.882 455.401 260.455 453.242C263.027 451.083 266.1 449.6 269.394 448.927C272.512 448.317 275.721 448.467 278.879 448.157C279.098 448.169 279.316 448.128 279.515 448.037C279.714 447.947 279.888 447.809 280.022 447.637C280.145 447.315 280.145 446.959 280.022 446.637L278.759 441.936C278.604 441.541 278.579 441.106 278.689 440.696C278.899 440.116 279.571 439.856 280.162 439.696C282.298 439.076 283.712 432.825 285.998 432.695C288.284 432.565 291.463 440.026 291.864 442.396C292.345 445.317 294.11 449.137 294.441 450.367Z" fill="url(#paint0_linear_47_1809)"/>
<path id="Vector_3" d="M357.769 455.978C363.705 461.649 372.719 462.819 380.831 461.889C382.204 461.729 383.768 461.399 384.45 460.199C385.132 458.999 384.621 457.489 383.889 456.318C382.164 453.598 379.367 451.738 376.549 450.157C372.388 447.836 367.992 445.962 363.434 444.567C362.473 444.338 361.562 443.935 360.747 443.376C358.972 441.976 358.802 439.376 357.398 437.575C356.807 436.825 350.119 435.035 349.467 435.575C347.462 437.115 349.858 441.976 350.73 444.257C352.405 448.487 354.41 452.768 357.769 455.978Z" fill="#530074"/>
<path id="Vector_4" d="M357.769 455.978C363.705 461.649 372.719 462.819 380.831 461.889C382.204 461.729 383.768 461.399 384.45 460.199C385.132 458.999 384.621 457.489 383.889 456.318C382.164 453.598 379.367 451.738 376.549 450.157C372.388 447.836 367.992 445.962 363.434 444.567C362.473 444.338 361.562 443.935 360.747 443.376C358.972 441.976 358.802 439.376 357.398 437.575C356.807 436.825 350.119 435.035 349.467 435.575C347.462 437.115 349.858 441.976 350.73 444.257C352.405 448.487 354.41 452.768 357.769 455.978Z" fill="url(#paint1_linear_47_1809)"/>
<path id="Vector_5" d="M500.85 265.358H451.619V465.43H500.85V265.358Z" fill="#530074"/>
<path id="Vector_6" d="M140.721 265.358H91.4897V465.43H140.721V265.358Z" fill="#530074"/>
<path id="Vector_7" d="M140.721 265.358H91.4897V321.227H140.721V265.358Z" fill="url(#paint2_linear_47_1809)"/>
<path id="Vector_8" d="M500.72 265.358H451.489V321.227H500.72V265.358Z" fill="url(#paint3_linear_47_1809)"/>
<path id="Vector_9" d="M511.8 248.986H73.2612V268.989H511.8V248.986Z" fill="#530074"/>
<path id="Vector_10" d="M294.801 296.273C294.801 296.273 228.244 325.378 225.507 330.378C222.769 335.379 223.682 348.111 227.793 353.572C231.904 359.033 277.024 441.336 277.024 441.336L292.064 437.235L262.435 348.111C262.435 348.111 344.494 343.571 350.42 337.66C356.345 331.749 364.547 314.016 364.547 314.016L321.693 275.36L294.801 296.273Z" fill="#530074"/>
<path id="Vector_11" d="M294.801 296.273C294.801 296.273 228.244 325.378 225.507 330.378C222.769 335.379 223.682 348.111 227.793 353.572C231.904 359.033 277.024 441.336 277.024 441.336L292.064 437.235L262.435 348.111C262.435 348.111 344.494 343.571 350.42 337.66C356.345 331.749 364.547 314.016 364.547 314.016L321.693 275.36L294.801 296.273Z" fill="url(#paint4_linear_47_1809)"/>
<path id="Vector_12" d="M333.023 84.3794H139.889C134.058 84.3794 129.331 89.0946 129.331 94.9111V208.439C129.331 214.256 134.058 218.971 139.889 218.971H333.023C338.854 218.971 343.581 214.256 343.581 208.439V94.9111C343.581 89.0946 338.854 84.3794 333.023 84.3794Z" fill="#530074"/>
<path id="Vector_13" d="M326.737 90.0103H145.634C140.263 90.0103 135.908 94.3538 135.908 99.7119V202.388C135.908 207.746 140.263 212.09 145.634 212.09H326.737C332.108 212.09 336.463 207.746 336.463 202.388V99.7119C336.463 94.3538 332.108 90.0103 326.737 90.0103Z" fill="url(#paint5_linear_47_1809)"/>
<path id="Vector_14" d="M326.737 90.0103H145.634C140.263 90.0103 135.908 94.3538 135.908 99.7119V202.388C135.908 207.746 140.263 212.09 145.634 212.09H326.737C332.108 212.09 336.463 207.746 336.463 202.388V99.7119C336.463 94.3538 332.108 90.0103 326.737 90.0103Z" fill="url(#paint6_linear_47_1809)"/>
<path id="Vector_15" d="M309.501 141.398C304.487 150.4 297.469 158.121 292.806 167.303C289.427 174.014 287.422 181.305 284.374 188.186C281.326 195.067 276.964 201.728 270.336 205.349C267.639 206.829 264.421 207.969 263.027 210.699C277.143 212.908 291.423 213.912 305.711 213.7C306.624 213.751 307.537 213.604 308.388 213.27C309.381 212.667 310.203 211.82 310.774 210.81C320.48 196.947 336.533 186.976 341.235 170.733C343.411 163.262 342.849 155.301 342.238 147.539C341.496 137.388 340.744 127.216 339.23 117.135C338.107 109.523 337.295 101.252 329.203 98.0216C324.541 96.1513 318.003 96.0213 313.622 98.7617C307.555 102.492 310.483 106.763 312.799 111.954C317.311 121.625 314.484 132.527 309.501 141.398Z" fill="url(#paint7_linear_47_1809)"/>
<path id="Vector_16" d="M337.806 139.258C338.096 139.209 338.394 139.262 338.648 139.408C338.813 139.585 338.918 139.809 338.949 140.048C339.15 141.554 339.251 143.07 339.25 144.589C339.261 146.117 339.796 147.595 340.764 148.78C342.268 150.37 344.704 150.52 346.89 150.58C347.351 150.614 347.814 150.577 348.264 150.47C348.864 150.201 349.433 149.865 349.958 149.47C351.513 148.58 353.478 148.73 355.072 147.92C355.686 147.589 356.242 147.16 356.716 146.649C359.875 143.349 360.166 138.178 359.103 133.727C358.04 129.277 355.884 125.166 354.721 120.725C353.718 116.815 353.438 112.554 351.182 109.193C350.974 108.797 350.673 108.457 350.304 108.203C349.936 107.949 349.511 107.787 349.066 107.733C345.699 107.134 342.273 106.93 338.859 107.123C336.111 107.123 333.244 107.273 330.837 108.583C329.293 109.413 324.982 102.852 323.899 104.223C323.137 105.223 324.952 125.836 325.202 127.426C327.338 140.878 334.026 139.448 337.806 139.258Z" fill="url(#paint8_linear_47_1809)"/>
<path id="Vector_17" d="M306.423 178.054C306.423 178.054 313.722 152.13 328.993 147.359C344.263 142.589 367.285 141.218 372.529 142.579C377.773 143.939 392.813 152.36 394.407 176.464C396.001 200.568 397.365 212.61 397.365 212.61L393.264 314.016C393.264 314.016 337.194 323.107 322.154 316.286L316.68 291.282L311.215 310.835L294.802 296.283L303.916 265.818C303.916 265.818 302.552 193.057 306.423 178.054Z" fill="#530074"/>
<path id="Vector_18" d="M306.423 178.054C306.423 178.054 313.722 152.13 328.993 147.359C344.263 142.589 367.285 141.218 372.529 142.579C377.773 143.939 392.813 152.36 394.407 176.464C396.001 200.568 397.365 212.61 397.365 212.61L393.264 314.016C393.264 314.016 337.194 323.107 322.154 316.286L316.68 291.282L311.215 310.835L294.802 296.283L303.916 265.818C303.916 265.818 302.552 193.057 306.423 178.054Z" fill="url(#paint9_linear_47_1809)"/>
<path id="Vector_19" opacity="0.48" d="M365.129 212.89C361.429 218.991 359.735 226.052 358.11 232.973L347.452 277.9C345.236 287.262 342.97 296.763 338.368 305.215C333.765 313.666 326.466 321.127 317.191 323.767C310.313 325.768 302.973 324.938 295.864 325.718C288.73 326.559 281.872 328.97 275.784 332.775C269.697 336.58 264.531 341.684 260.661 347.721C290 348.11 319.332 346.473 348.444 342.82C352.746 342.28 357.198 341.64 360.868 339.33C365.169 336.61 367.816 331.949 369.892 327.328C374.414 317.446 377.321 306.915 379.918 296.323C384.129 278.957 387.449 261.388 389.865 243.685C392.071 227.552 396.573 207.369 393.805 191.336C383.207 193.717 370.764 203.648 365.129 212.89Z" fill="url(#paint10_linear_47_1809)"/>
<path id="Vector_20" d="M276.513 246.035L302.783 245.805L303.465 233.753L276.513 246.035Z" stroke="#3CB6D5" stroke-width="1.28" stroke-miterlimit="10"/>
<path id="Vector_21" d="M292.987 347.661L347.682 439.516L359.534 436.785L332.181 344.481L292.987 347.661Z" fill="#530074"/>
<path id="Vector_22" d="M292.987 347.661L347.682 439.516L359.534 436.785L332.181 344.481L292.987 347.661Z" fill="url(#paint11_linear_47_1809)"/>
<path id="Vector_23" d="M463.932 248.536C461.646 257.647 442.024 333.549 442.024 333.549C442.024 333.549 437.01 354.472 421.529 354.472C413.217 354.472 372.519 353.752 336.573 353.072C305.49 352.492 277.947 351.952 277.947 351.952C277.947 351.952 274.307 338.54 285.677 337.61C297.047 336.68 329.434 337.61 329.434 337.61C329.434 337.61 345.416 336.74 351.783 320.807C357.027 307.805 368.969 255.007 373.15 236.404C374.259 231.327 376.519 226.571 379.758 222.501C386.947 213.34 401.225 198.808 420.165 197.597C439.838 196.287 452.472 203.648 458.979 210.189C461.065 212.158 462.747 214.512 463.932 217.121C466.208 223.051 466.208 239.424 463.932 248.536Z" fill="#530074"/>
<path id="Vector_24" d="M458.979 210.209C458.979 210.789 458.979 211.33 458.929 211.91C458.929 211.91 420.607 198.297 391.9 241.264L365.229 334.679C365.229 334.679 359.935 352.412 336.573 353.092C305.49 352.512 277.947 351.972 277.947 351.972C277.947 351.972 274.307 338.56 285.677 337.63C297.047 336.699 329.434 337.63 329.434 337.63C329.434 337.63 345.416 336.759 351.783 320.827C357.027 307.825 368.969 255.027 373.15 236.424C374.259 231.347 376.519 226.591 379.758 222.521C386.947 213.36 401.225 198.828 420.165 197.617C439.838 196.307 452.472 203.668 458.979 210.209Z" fill="url(#paint12_linear_47_1809)"/>
<path id="Vector_25" d="M359.073 353.382H351.783V465.89H359.073V353.382Z" fill="#530074"/>
<path id="Vector_26" d="M359.073 353.382H351.783V465.89H359.073V353.382Z" fill="url(#paint13_linear_47_1809)"/>
<path id="Vector_27" d="M383.628 456.999H331.108C328.616 456.999 326.596 459.014 326.596 461.499C326.596 463.985 328.616 466 331.108 466H383.628C386.12 466 388.14 463.985 388.14 461.499C388.14 459.014 386.12 456.999 383.628 456.999Z" fill="#530074"/>
<path id="Vector_28" d="M383.628 456.999H331.108C328.616 456.999 326.596 459.014 326.596 461.499C326.596 463.985 328.616 466 331.108 466H383.628C386.12 466 388.14 463.985 388.14 461.499C388.14 459.014 386.12 456.999 383.628 456.999Z" fill="url(#paint14_linear_47_1809)"/>
<path id="Vector_29" d="M272.472 218.911H210.246V244.605H272.472V218.911Z" fill="#530074"/>
<path id="Vector_30" d="M272.472 218.911H210.246V244.605H272.472V218.911Z" fill="url(#paint15_linear_47_1809)"/>
<path id="Vector_31" d="M296.075 238.004H182.111V248.916H296.075V238.004Z" fill="#530074"/>
<path id="Vector_32" d="M297.87 238.804H183.906V247.355H297.87V238.804Z" fill="url(#paint16_linear_47_1809)"/>
<path id="Vector_33" d="M335.901 86.9399C334.016 88.3401 332.382 90.0703 330.396 91.3205C327.666 92.9393 324.549 93.796 321.372 93.8009C319.216 93.871 316.579 93.901 315.547 95.8013C314.694 97.3515 315.547 99.3118 316.63 100.692C317.65 101.945 318.903 102.991 320.319 103.773C321.043 104.106 321.718 104.537 322.325 105.053C323.558 106.303 323.568 108.283 324.33 109.863C325.413 112.084 327.88 113.264 329.464 115.164C332.582 118.895 331.82 124.656 334.477 128.696C336.085 130.859 338.301 132.495 340.844 133.397C344.259 134.877 348.016 135.389 351.703 134.877C355.387 134.353 358.716 132.402 360.968 129.447C362.863 126.816 363.625 123.556 364.166 120.365C365.239 114.074 365.61 107.543 364.026 101.362C360.897 89.2102 348.003 77.9684 335.901 86.9399Z" fill="#3F3D56"/>
<path id="Vector_34" d="M335.901 86.9399C334.016 88.3401 332.382 90.0703 330.396 91.3205C327.666 92.9393 324.549 93.796 321.372 93.8009C319.216 93.871 316.579 93.901 315.547 95.8013C314.694 97.3515 315.547 99.3118 316.63 100.692C317.65 101.945 318.903 102.991 320.319 103.773C321.043 104.106 321.718 104.537 322.325 105.053C323.558 106.303 323.568 108.283 324.33 109.863C325.413 112.084 327.88 113.264 329.464 115.164C332.582 118.895 331.82 124.656 334.477 128.696C336.085 130.859 338.301 132.495 340.844 133.397C344.259 134.877 348.016 135.389 351.703 134.877C355.387 134.353 358.716 132.402 360.968 129.447C362.863 126.816 363.625 123.556 364.166 120.365C365.239 114.074 365.61 107.543 364.026 101.362C360.897 89.2102 348.003 77.9684 335.901 86.9399Z" fill="url(#paint17_linear_47_1809)"/>
<path id="Vector_35" d="M339.09 157.191C340.412 159.032 341.317 161.137 341.743 163.362C342.169 165.586 342.105 167.876 341.556 170.073C338.929 181.445 331.66 208.429 319.417 220.081C303.685 235.083 279.762 250.776 230.179 249.416L230.871 235.773C230.871 235.773 284.544 230.993 289.327 213.26C294.11 195.527 312.92 157.331 319.758 153.58C325.132 150.66 333.685 150.03 339.09 157.191Z" fill="#530074"/>
<path id="Vector_36" d="M339.09 157.191C340.412 159.032 341.317 161.137 341.743 163.362C342.169 165.586 342.105 167.876 341.556 170.073C338.929 181.445 331.66 208.429 319.417 220.081C303.685 235.083 279.762 250.776 230.179 249.416L230.871 235.773C230.871 235.773 284.544 230.993 289.327 213.26C294.11 195.527 312.92 157.331 319.758 153.58C325.132 150.66 333.685 150.03 339.09 157.191Z" fill="url(#paint18_linear_47_1809)"/>
<path id="Vector_37" d="M219.661 235.073C215.601 234.297 211.407 234.613 207.51 235.987C203.612 237.362 200.151 239.746 197.482 242.895L209.364 244.055C210.135 244.063 210.892 244.27 211.56 244.655C212.069 245.13 212.555 245.631 213.014 246.155C214.039 246.868 215.274 247.22 216.523 247.155C220.243 247.325 223.973 247.335 227.693 247.155C228.154 247.185 228.612 247.062 228.996 246.805C229.289 246.508 229.482 246.127 229.548 245.715C230.039 243.815 231.122 238.494 229.277 237.164C228.415 236.554 225.768 236.634 224.655 236.344C222.99 235.963 221.356 235.413 219.661 235.073Z" fill="url(#paint19_linear_47_1809)"/>
<path id="Vector_38" opacity="0.18" d="M481.449 76.4982V122.956C481.446 125.418 480.464 127.779 478.717 129.519C476.97 131.259 474.603 132.237 472.134 132.237H437.963L423.464 153.81V132.237H399.861C398.639 132.238 397.428 131.999 396.298 131.533C395.168 131.068 394.141 130.384 393.275 129.522C392.41 128.66 391.724 127.636 391.256 126.51C390.788 125.383 390.547 124.175 390.547 122.956V76.4982C390.547 75.2785 390.788 74.0707 391.256 72.944C391.724 71.8172 392.41 70.7936 393.275 69.9316C394.141 69.0696 395.168 68.3862 396.298 67.9203C397.428 67.4545 398.639 67.2154 399.861 67.2167H472.134C474.603 67.2167 476.97 68.1942 478.717 69.9346C480.464 71.6749 481.446 74.0356 481.449 76.4982Z" fill="#530074"/>
<path id="Vector_39" d="M477.849 74.1078V120.565C477.849 121.785 477.608 122.993 477.14 124.119C476.672 125.246 475.985 126.27 475.12 127.132C474.255 127.994 473.228 128.677 472.098 129.143C470.968 129.609 469.757 129.848 468.534 129.847H434.373L419.865 151.42V129.877H396.272C395.049 129.878 393.837 129.639 392.706 129.173C391.576 128.707 390.548 128.024 389.682 127.162C388.816 126.3 388.129 125.277 387.66 124.15C387.191 123.023 386.948 121.815 386.947 120.595V74.1078C386.948 72.8876 387.191 71.6796 387.66 70.5528C388.129 69.426 388.816 68.4025 389.682 67.5406C390.548 66.6788 391.576 65.9955 392.706 65.5297C393.837 65.064 395.049 64.825 396.272 64.8263H468.534C469.757 64.825 470.968 65.0641 472.098 65.5299C473.228 65.9958 474.255 66.6792 475.12 67.5412C475.985 68.4032 476.672 69.4269 477.14 70.5536C477.608 71.6803 477.849 72.8881 477.849 74.1078Z" fill="white"/>
<path id="Vector_40" d="M157.395 98.0816H148.933V202.498H157.395V98.0816Z" fill="url(#paint20_linear_47_1809)"/>
<path id="Vector_41" d="M413.508 98.0816L428.167 90.5504V92.7308L415.814 98.8717V98.9417L428.167 105.113V107.293L413.508 99.7619V98.0816Z" fill="#530074"/>
<path id="Vector_42" d="M430.212 108.583L439.026 85.7296H441.171L432.328 108.583H430.212Z" fill="#530074"/>
<path id="Vector_43" d="M457.816 99.8719L443.167 107.373V105.143L455.61 98.9718V98.8717L443.167 92.7008V90.5504L457.816 98.0516V99.8719Z" fill="#530074"/>
<path id="Vector_44" d="M200.731 114.694H173.528V116.685H200.731V114.694Z" fill="url(#paint21_linear_47_1809)"/>
<path id="Vector_45" d="M190.133 118.545H173.528V120.415H190.133V118.545Z" fill="url(#paint22_linear_47_1809)"/>
<path id="Vector_46" d="M249.08 118.545H196.831V120.425H249.08V118.545Z" fill="url(#paint23_linear_47_1809)"/>
<path id="Vector_47" d="M283.371 118.545H253.963V120.425H283.371V118.545Z" fill="url(#paint24_linear_47_1809)"/>
<path id="Vector_48" d="M204.992 122.405H182.161V124.376H204.992V122.405Z" fill="url(#paint25_linear_47_1809)"/>
<path id="Vector_49" d="M216.693 126.256H189.491V128.246H216.693V126.256Z" fill="url(#paint26_linear_47_1809)"/>
<path id="Vector_50" d="M241.269 126.256H218.468V128.466H241.269V126.256Z" fill="url(#paint27_linear_47_1809)"/>
<path id="Vector_51" d="M210.457 130.107H189.451V131.977H210.457V130.107Z" fill="url(#paint28_linear_47_1809)"/>
<path id="Vector_52" d="M292.134 130.107H271.128V131.977H292.134V130.107Z" fill="url(#paint29_linear_47_1809)"/>
<path id="Vector_53" d="M255.818 130.107H212.472V132.177H255.818V130.107Z" fill="url(#paint30_linear_47_1809)"/>
<path id="Vector_54" d="M269.494 130.107H259.939V132.217H269.494V130.107Z" fill="url(#paint31_linear_47_1809)"/>
<path id="Vector_55" d="M200.731 135.318H173.528V137.308H200.731V135.318Z" fill="url(#paint32_linear_47_1809)"/>
<path id="Vector_56" d="M190.133 139.168H173.528V141.038H190.133V139.168Z" fill="url(#paint33_linear_47_1809)"/>
<path id="Vector_57" d="M249.08 139.168H196.831V141.048H249.08V139.168Z" fill="url(#paint34_linear_47_1809)"/>
<path id="Vector_58" d="M283.371 139.168H253.963V141.048H283.371V139.168Z" fill="url(#paint35_linear_47_1809)"/>
<path id="Vector_59" d="M204.992 143.019H182.161V144.989H204.992V143.019Z" fill="url(#paint36_linear_47_1809)"/>
<path id="Vector_60" d="M216.693 146.879H189.491V148.87H216.693V146.879Z" fill="url(#paint37_linear_47_1809)"/>
<path id="Vector_61" d="M241.269 146.879H218.468V149.09H241.269V146.879Z" fill="url(#paint38_linear_47_1809)"/>
<path id="Vector_62" d="M210.457 150.73H189.451V152.6H210.457V150.73Z" fill="url(#paint39_linear_47_1809)"/>
<path id="Vector_63" d="M292.134 150.73H271.128V152.6H292.134V150.73Z" fill="url(#paint40_linear_47_1809)"/>
<path id="Vector_64" d="M255.818 150.73H212.472V152.8H255.818V150.73Z" fill="url(#paint41_linear_47_1809)"/>
<path id="Vector_65" d="M269.494 150.73H259.939V152.84H269.494V150.73Z" fill="url(#paint42_linear_47_1809)"/>
<path id="Vector_66" d="M200.731 155.941H173.528V157.931H200.731V155.941Z" fill="url(#paint43_linear_47_1809)"/>
<path id="Vector_67" d="M190.133 159.791H173.528V161.662H190.133V159.791Z" fill="url(#paint44_linear_47_1809)"/>
<path id="Vector_68" d="M249.08 159.791H196.831V161.672H249.08V159.791Z" fill="url(#paint45_linear_47_1809)"/>
<path id="Vector_69" d="M283.371 159.791H253.963V161.672H283.371V159.791Z" fill="url(#paint46_linear_47_1809)"/>
<path id="Vector_70" d="M204.992 163.642H182.161V165.612H204.992V163.642Z" fill="url(#paint47_linear_47_1809)"/>
<path id="Vector_71" d="M216.693 167.493H189.491V169.483H216.693V167.493Z" fill="url(#paint48_linear_47_1809)"/>
<path id="Vector_72" d="M241.269 167.493H218.468V169.703H241.269V167.493Z" fill="url(#paint49_linear_47_1809)"/>
<path id="Vector_73" d="M210.457 171.353H189.451V173.224H210.457V171.353Z" fill="url(#paint50_linear_47_1809)"/>
<path id="Vector_74" d="M292.134 171.353H271.128V173.224H292.134V171.353Z" fill="url(#paint51_linear_47_1809)"/>
<path id="Vector_75" d="M255.818 171.353H212.472V173.424H255.818V171.353Z" fill="url(#paint52_linear_47_1809)"/>
<path id="Vector_76" d="M269.494 171.353H259.939V173.464H269.494V171.353Z" fill="url(#paint53_linear_47_1809)"/>
</g>
</g>
<defs>
<linearGradient id="paint0_linear_47_1809" x1="246.473" y1="433.095" x2="322.48" y2="477.187" gradientUnits="userSpaceOnUse">
<stop stop-opacity="0"/>
<stop offset="0.99"/>
</linearGradient>
<linearGradient id="paint1_linear_47_1809" x1="376.579" y1="436.135" x2="352.988" y2="465.178" gradientUnits="userSpaceOnUse">
<stop stop-opacity="0"/>
<stop offset="0.99"/>
</linearGradient>
<linearGradient id="paint2_linear_47_1809" x1="43.6824" y1="280.661" x2="975.947" y2="444.04" gradientUnits="userSpaceOnUse">
<stop stop-opacity="0"/>
<stop offset="0.99"/>
</linearGradient>
<linearGradient id="paint3_linear_47_1809" x1="403.672" y1="280.661" x2="1335.94" y2="444.04" gradientUnits="userSpaceOnUse">
<stop stop-opacity="0"/>
<stop offset="0.99"/>
</linearGradient>
<linearGradient id="paint4_linear_47_1809" x1="200.801" y1="361.623" x2="667.592" y2="346.013" gradientUnits="userSpaceOnUse">
<stop stop-opacity="0"/>
<stop offset="0.99"/>
</linearGradient>
<linearGradient id="paint5_linear_47_1809" x1="236.466" y1="145.659" x2="206.646" y2="729.049" gradientUnits="userSpaceOnUse">
<stop stop-opacity="0"/>
<stop offset="0.99"/>
</linearGradient>
<linearGradient id="paint6_linear_47_1809" x1="233.949" y1="259.187" x2="238.419" y2="42.2123" gradientUnits="userSpaceOnUse">
<stop stop-color="white" stop-opacity="0"/>
<stop offset="0.99" stop-color="white"/>
</linearGradient>
<linearGradient id="paint7_linear_47_1809" x1="272.923" y1="153.03" x2="763.681" y2="183.065" gradientUnits="userSpaceOnUse">
<stop stop-opacity="0"/>
<stop offset="0.99"/>
</linearGradient>
<linearGradient id="paint8_linear_47_1809" x1="323.708" y1="127.326" x2="359.654" y2="127.326" gradientUnits="userSpaceOnUse">
<stop stop-color="#ECC4D7"/>
<stop offset="0.42" stop-color="#EFD4D1"/>
<stop offset="1" stop-color="#F2EAC9"/>
</linearGradient>
<linearGradient id="paint9_linear_47_1809" x1="305.741" y1="225.162" x2="793.779" y2="281.027" gradientUnits="userSpaceOnUse">
<stop stop-opacity="0"/>
<stop offset="0.99"/>
</linearGradient>
<linearGradient id="paint10_linear_47_1809" x1="288.655" y1="247.475" x2="730.334" y2="501.272" gradientUnits="userSpaceOnUse">
<stop stop-opacity="0"/>
<stop offset="0.99"/>
</linearGradient>
<linearGradient id="paint11_linear_47_1809" x1="321.543" y1="424.103" x2="368.058" y2="107.869" gradientUnits="userSpaceOnUse">
<stop stop-opacity="0"/>
<stop offset="0.99"/>
</linearGradient>
<linearGradient id="paint12_linear_47_1809" x1="323.007" y1="361.623" x2="469.247" y2="89.3539" gradientUnits="userSpaceOnUse">
<stop stop-color="white" stop-opacity="0"/>
<stop offset="0.99" stop-color="white"/>
</linearGradient>
<linearGradient id="paint13_linear_47_1809" x1="354.089" y1="444.647" x2="360.055" y2="288.341" gradientUnits="userSpaceOnUse">
<stop stop-opacity="0"/>
<stop offset="0.99"/>
</linearGradient>
<linearGradient id="paint14_linear_47_1809" x1="347.472" y1="453.748" x2="404.585" y2="498.714" gradientUnits="userSpaceOnUse">
<stop stop-opacity="0"/>
<stop offset="0.99"/>
</linearGradient>
<linearGradient id="paint15_linear_47_1809" x1="241.379" y1="238.364" x2="241.18" y2="180.575" gradientUnits="userSpaceOnUse">
<stop stop-opacity="0"/>
<stop offset="0.99"/>
</linearGradient>
<linearGradient id="paint16_linear_47_1809" x1="240.396" y1="229.572" x2="242.073" y2="275.6" gradientUnits="userSpaceOnUse">
<stop stop-opacity="0"/>
<stop offset="0.99"/>
</linearGradient>
<linearGradient id="paint17_linear_47_1809" x1="334.457" y1="102.132" x2="373.947" y2="126.725" gradientUnits="userSpaceOnUse">
<stop stop-opacity="0"/>
<stop offset="0.99"/>
</linearGradient>
<linearGradient id="paint18_linear_47_1809" x1="291.332" y1="210.77" x2="262.046" y2="177.821" gradientUnits="userSpaceOnUse">
<stop stop-color="white" stop-opacity="0"/>
<stop offset="0.99" stop-color="white"/>
</linearGradient>
<linearGradient id="paint19_linear_47_1809" x1="197.482" y1="240.974" x2="230.31" y2="240.974" gradientUnits="userSpaceOnUse">
<stop stop-color="#ECC4D7"/>
<stop offset="0.42" stop-color="#EFD4D1"/>
<stop offset="1" stop-color="#F2EAC9"/>
</linearGradient>
<linearGradient id="paint20_linear_47_1809" x1="127.175" y1="154.701" x2="201.172" y2="142.087" gradientUnits="userSpaceOnUse">
<stop stop-color="white" stop-opacity="0"/>
<stop offset="0.99" stop-color="white"/>
</linearGradient>
<linearGradient id="paint21_linear_47_1809" x1="188.157" y1="60.7257" x2="186.671" y2="140.528" gradientUnits="userSpaceOnUse">
<stop stop-color="white" stop-opacity="0"/>
<stop offset="0.99" stop-color="white"/>
</linearGradient>
<linearGradient id="paint22_linear_47_1809" x1="182.933" y1="60.6356" x2="181.447" y2="140.429" gradientUnits="userSpaceOnUse">
<stop stop-color="white" stop-opacity="0"/>
<stop offset="0.99" stop-color="white"/>
</linearGradient>
<linearGradient id="paint23_linear_47_1809" x1="224.043" y1="61.3956" x2="222.547" y2="141.199" gradientUnits="userSpaceOnUse">
<stop stop-color="white" stop-opacity="0"/>
<stop offset="0.99" stop-color="white"/>
</linearGradient>
<linearGradient id="paint24_linear_47_1809" x1="269.735" y1="62.2558" x2="268.248" y2="142.049" gradientUnits="userSpaceOnUse">
<stop stop-color="white" stop-opacity="0"/>
<stop offset="0.99" stop-color="white"/>
</linearGradient>
<linearGradient id="paint25_linear_47_1809" x1="194.755" y1="60.8556" x2="193.258" y2="140.649" gradientUnits="userSpaceOnUse">
<stop stop-color="white" stop-opacity="0"/>
<stop offset="0.99" stop-color="white"/>
</linearGradient>
<linearGradient id="paint26_linear_47_1809" x1="204.341" y1="61.0256" x2="202.844" y2="140.829" gradientUnits="userSpaceOnUse">
<stop stop-color="white" stop-opacity="0"/>
<stop offset="0.99" stop-color="white"/>
</linearGradient>
<linearGradient id="paint27_linear_47_1809" x1="231.102" y1="61.5259" x2="229.615" y2="141.329" gradientUnits="userSpaceOnUse">
<stop stop-color="white" stop-opacity="0"/>
<stop offset="0.99" stop-color="white"/>
</linearGradient>
<linearGradient id="paint28_linear_47_1809" x1="201.272" y1="60.9756" x2="199.786" y2="140.769" gradientUnits="userSpaceOnUse">
<stop stop-color="white" stop-opacity="0"/>
<stop offset="0.99" stop-color="white"/>
</linearGradient>
<linearGradient id="paint29_linear_47_1809" x1="282.92" y1="62.4959" x2="281.433" y2="142.299" gradientUnits="userSpaceOnUse">
<stop stop-color="white" stop-opacity="0"/>
<stop offset="0.99" stop-color="white"/>
</linearGradient>
<linearGradient id="paint30_linear_47_1809" x1="235.453" y1="61.6156" x2="233.967" y2="141.409" gradientUnits="userSpaceOnUse">
<stop stop-color="white" stop-opacity="0"/>
<stop offset="0.99" stop-color="white"/>
</linearGradient>
<linearGradient id="paint31_linear_47_1809" x1="266.015" y1="62.1859" x2="264.518" y2="141.979" gradientUnits="userSpaceOnUse">
<stop stop-color="white" stop-opacity="0"/>
<stop offset="0.99" stop-color="white"/>
</linearGradient>
<linearGradient id="paint32_linear_47_1809" x1="188.157" y1="81.349" x2="186.671" y2="161.152" gradientUnits="userSpaceOnUse">
<stop stop-color="white" stop-opacity="0"/>
<stop offset="0.99" stop-color="white"/>
</linearGradient>
<linearGradient id="paint33_linear_47_1809" x1="182.933" y1="81.2491" x2="181.447" y2="161.052" gradientUnits="userSpaceOnUse">
<stop stop-color="white" stop-opacity="0"/>
<stop offset="0.99" stop-color="white"/>
</linearGradient>
<linearGradient id="paint34_linear_47_1809" x1="224.043" y1="82.0192" x2="222.547" y2="161.822" gradientUnits="userSpaceOnUse">
<stop stop-color="white" stop-opacity="0"/>
<stop offset="0.99" stop-color="white"/>
</linearGradient>
<linearGradient id="paint35_linear_47_1809" x1="269.735" y1="82.8693" x2="268.248" y2="162.672" gradientUnits="userSpaceOnUse">
<stop stop-color="white" stop-opacity="0"/>
<stop offset="0.99" stop-color="white"/>
</linearGradient>
<linearGradient id="paint36_linear_47_1809" x1="194.755" y1="81.4689" x2="193.258" y2="161.272" gradientUnits="userSpaceOnUse">
<stop stop-color="white" stop-opacity="0"/>
<stop offset="0.99" stop-color="white"/>
</linearGradient>
<linearGradient id="paint37_linear_47_1809" x1="204.341" y1="81.6491" x2="202.844" y2="161.452" gradientUnits="userSpaceOnUse">
<stop stop-color="white" stop-opacity="0"/>
<stop offset="0.99" stop-color="white"/>
</linearGradient>
<linearGradient id="paint38_linear_47_1809" x1="231.102" y1="82.1491" x2="229.615" y2="161.952" gradientUnits="userSpaceOnUse">
<stop stop-color="white" stop-opacity="0"/>
<stop offset="0.99" stop-color="white"/>
</linearGradient>
<linearGradient id="paint39_linear_47_1809" x1="201.272" y1="81.5989" x2="199.786" y2="161.392" gradientUnits="userSpaceOnUse">
<stop stop-color="white" stop-opacity="0"/>
<stop offset="0.99" stop-color="white"/>
</linearGradient>
<linearGradient id="paint40_linear_47_1809" x1="282.92" y1="83.1191" x2="281.433" y2="162.912" gradientUnits="userSpaceOnUse">
<stop stop-color="white" stop-opacity="0"/>
<stop offset="0.99" stop-color="white"/>
</linearGradient>
<linearGradient id="paint41_linear_47_1809" x1="235.453" y1="82.2291" x2="233.967" y2="162.032" gradientUnits="userSpaceOnUse">
<stop stop-color="white" stop-opacity="0"/>
<stop offset="0.99" stop-color="white"/>
</linearGradient>
<linearGradient id="paint42_linear_47_1809" x1="266.015" y1="82.8092" x2="264.518" y2="162.602" gradientUnits="userSpaceOnUse">
<stop stop-color="white" stop-opacity="0"/>
<stop offset="0.99" stop-color="white"/>
</linearGradient>
<linearGradient id="paint43_linear_47_1809" x1="188.157" y1="101.972" x2="186.671" y2="181.765" gradientUnits="userSpaceOnUse">
<stop stop-color="white" stop-opacity="0"/>
<stop offset="0.99" stop-color="white"/>
</linearGradient>
<linearGradient id="paint44_linear_47_1809" x1="182.933" y1="101.872" x2="181.447" y2="181.675" gradientUnits="userSpaceOnUse">
<stop stop-color="white" stop-opacity="0"/>
<stop offset="0.99" stop-color="white"/>
</linearGradient>
<linearGradient id="paint45_linear_47_1809" x1="224.043" y1="102.643" x2="222.547" y2="182.435" gradientUnits="userSpaceOnUse">
<stop stop-color="white" stop-opacity="0"/>
<stop offset="0.99" stop-color="white"/>
</linearGradient>
<linearGradient id="paint46_linear_47_1809" x1="269.735" y1="103.493" x2="268.248" y2="183.295" gradientUnits="userSpaceOnUse">
<stop stop-color="white" stop-opacity="0"/>
<stop offset="0.99" stop-color="white"/>
</linearGradient>
<linearGradient id="paint47_linear_47_1809" x1="194.755" y1="102.092" x2="193.258" y2="181.895" gradientUnits="userSpaceOnUse">
<stop stop-color="white" stop-opacity="0"/>
<stop offset="0.99" stop-color="white"/>
</linearGradient>
<linearGradient id="paint48_linear_47_1809" x1="204.341" y1="102.272" x2="202.844" y2="182.075" gradientUnits="userSpaceOnUse">
<stop stop-color="white" stop-opacity="0"/>
<stop offset="0.99" stop-color="white"/>
</linearGradient>
<linearGradient id="paint49_linear_47_1809" x1="231.102" y1="102.773" x2="229.615" y2="182.575" gradientUnits="userSpaceOnUse">
<stop stop-color="white" stop-opacity="0"/>
<stop offset="0.99" stop-color="white"/>
</linearGradient>
<linearGradient id="paint50_linear_47_1809" x1="201.272" y1="102.212" x2="199.786" y2="182.015" gradientUnits="userSpaceOnUse">
<stop stop-color="white" stop-opacity="0"/>
<stop offset="0.99" stop-color="white"/>
</linearGradient>
<linearGradient id="paint51_linear_47_1809" x1="282.92" y1="103.743" x2="281.433" y2="183.535" gradientUnits="userSpaceOnUse">
<stop stop-color="white" stop-opacity="0"/>
<stop offset="0.99" stop-color="white"/>
</linearGradient>
<linearGradient id="paint52_linear_47_1809" x1="235.453" y1="102.853" x2="233.967" y2="182.655" gradientUnits="userSpaceOnUse">
<stop stop-color="white" stop-opacity="0"/>
<stop offset="0.99" stop-color="white"/>
</linearGradient>
<linearGradient id="paint53_linear_47_1809" x1="266.015" y1="103.422" x2="264.518" y2="183.225" gradientUnits="userSpaceOnUse">
<stop stop-color="white" stop-opacity="0"/>
<stop offset="0.99" stop-color="white"/>
</linearGradient>
</defs>
</svg>
