<?xml version="1.0" standalone="no"?>
<!DOCTYPE svg PUBLIC "-//W3C//DTD SVG 20010904//EN"
 "http://www.w3.org/TR/2001/REC-SVG-20010904/DTD/svg10.dtd">
<svg version="1.0" xmlns="http://www.w3.org/2000/svg"
 width="137.000000pt" height="137.000000pt" viewBox="0 0 137.000000 137.000000"
 preserveAspectRatio="xMidYMid meet">
<g transform="translate(0.000000,137.000000) scale(0.100000,-0.100000)"
fill="#000000" stroke="none">
<path d="M485 1316 c-125 -35 -200 -79 -301 -180 -53 -53 -81 -92 -112 -156
-23 -47 -43 -96 -46 -110 -3 -14 -8 -36 -12 -50 -11 -42 -13 -203 -3 -250 5
-25 12 -56 15 -70 3 -14 24 -63 46 -110 59 -119 169 -230 288 -288 47 -23 96
-44 110 -46 14 -3 36 -8 50 -12 42 -11 273 -14 315 -3 22 5 51 12 65 14 14 3
63 24 110 47 168 82 304 256 346 443 10 49 13 225 3 259 -5 17 -12 44 -15 60
-2 16 -8 34 -12 40 -4 6 -7 13 -7 17 0 3 -16 36 -35 75 -52 104 -170 218 -280
272 -47 23 -96 44 -110 46 -14 3 -36 8 -50 12 -14 4 -83 8 -155 10 -109 2
-143 -1 -210 -20z"/>
</g>
</svg>
